<svg width="40" height="30" viewBox="0 0 40 30" fill="none" xmlns="http://www.w3.org/2000/svg">
<path fill-rule="evenodd" clip-rule="evenodd" d="M0 5C0 3.67392 0.526784 2.40215 1.46447 1.46447C2.40215 0.526784 3.67392 0 5 0H35C36.3261 0 37.5979 0.526784 38.5355 1.46447C39.4732 2.40215 40 3.67392 40 5V25C40 26.3261 39.4732 27.5979 38.5355 28.5355C37.5979 29.4732 36.3261 30 35 30H5C3.67392 30 2.40215 29.4732 1.46447 28.5355C0.526784 27.5979 0 26.3261 0 25V5ZM5 2.5C4.33696 2.5 3.70107 2.76339 3.23223 3.23223C2.76339 3.70107 2.5 4.33696 2.5 5V7.5H37.5V5C37.5 4.33696 37.2366 3.70107 36.7678 3.23223C36.2989 2.76339 35.663 2.5 35 2.5H5ZM37.5 12.5H2.5V25C2.5 25.663 2.76339 26.2989 3.23223 26.7678C3.70107 27.2366 4.33696 27.5 5 27.5H35C35.663 27.5 36.2989 27.2366 36.7678 26.7678C37.2366 26.2989 37.5 25.663 37.5 25V12.5Z" fill="black"/>
<path d="M5 20C5 19.337 5.26339 18.7011 5.73223 18.2322C6.20107 17.7634 6.83696 17.5 7.5 17.5H10C10.663 17.5 11.2989 17.7634 11.7678 18.2322C12.2366 18.7011 12.5 19.337 12.5 20V22.5C12.5 23.163 12.2366 23.7989 11.7678 24.2678C11.2989 24.7366 10.663 25 10 25H7.5C6.83696 25 6.20107 24.7366 5.73223 24.2678C5.26339 23.7989 5 23.163 5 22.5V20Z" fill="black"/>
</svg>
