<svg width="43" height="42" viewBox="0 0 43 42" fill="none" xmlns="http://www.w3.org/2000/svg">
<path d="M12.5513 21L19.2179 27.6667L30.3291 16.5555" stroke="black" stroke-width="2" stroke-linecap="round" stroke-linejoin="round"/>
<path d="M1.43994 21C1.43994 18.3736 1.95726 15.7728 2.96235 13.3463C3.96744 10.9198 5.44063 8.71504 7.29781 6.85786C9.15498 5.00069 11.3598 3.5275 13.7863 2.52241C16.2128 1.51732 18.8135 1 21.4399 1C24.0664 1 26.6671 1.51732 29.0936 2.52241C31.5201 3.5275 33.7249 5.00069 35.5821 6.85786C37.4392 8.71504 38.9124 10.9198 39.9175 13.3463C40.9226 15.7728 41.4399 18.3736 41.4399 21C41.4399 26.3043 39.3328 31.3914 35.5821 35.1421C31.8313 38.8929 26.7443 41 21.4399 41C16.1356 41 11.0485 38.8929 7.29781 35.1421C3.54708 31.3914 1.43994 26.3043 1.43994 21V21Z" stroke="black" stroke-width="2" stroke-linecap="round"/>
</svg>
