<svg width="29" height="22" viewBox="0 0 29 22" fill="none" xmlns="http://www.w3.org/2000/svg">
<path d="M12.6875 15.526C12.6875 16.0512 12.5388 16.4976 12.2415 16.8652C11.9441 17.2329 11.5877 17.4167 11.1724 17.4167H5.14014C4.72477 17.4167 4.36841 17.2329 4.07104 16.8652C3.77368 16.4976 3.625 16.0512 3.625 15.526C3.625 15.0104 3.6604 14.5306 3.7312 14.0866C3.802 13.6426 3.91764 13.2129 4.07812 12.7975C4.23861 12.3822 4.47933 12.0551 4.80029 11.8164C5.12126 11.5777 5.50358 11.4583 5.94727 11.4583C6.55143 12.0694 7.28776 12.375 8.15625 12.375C9.02474 12.375 9.76107 12.0694 10.3652 11.4583C10.8089 11.4583 11.1912 11.5777 11.5122 11.8164C11.8332 12.0551 12.0739 12.3822 12.2344 12.7975C12.3949 13.2129 12.5105 13.6426 12.5813 14.0866C12.6521 14.5306 12.6875 15.0104 12.6875 15.526ZM10.875 9.16667C10.875 9.93056 10.6107 10.5799 10.082 11.1146C9.55339 11.6493 8.91146 11.9167 8.15625 11.9167C7.40104 11.9167 6.75911 11.6493 6.23047 11.1146C5.70182 10.5799 5.4375 9.93056 5.4375 9.16667C5.4375 8.40278 5.70182 7.75347 6.23047 7.21875C6.75911 6.68403 7.40104 6.41667 8.15625 6.41667C8.91146 6.41667 9.55339 6.68403 10.082 7.21875C10.6107 7.75347 10.875 8.40278 10.875 9.16667ZM25.375 15.125V16.0417C25.375 16.1753 25.3325 16.2852 25.2476 16.3711C25.1626 16.457 25.054 16.5 24.9219 16.5H14.9531C14.821 16.5 14.7124 16.457 14.6274 16.3711C14.5425 16.2852 14.5 16.1753 14.5 16.0417V15.125C14.5 14.9913 14.5425 14.8815 14.6274 14.7956C14.7124 14.7096 14.821 14.6667 14.9531 14.6667H24.9219C25.054 14.6667 25.1626 14.7096 25.2476 14.7956C25.3325 14.8815 25.375 14.9913 25.375 15.125ZM19.9375 11.4583V12.375C19.9375 12.5087 19.895 12.6185 19.8101 12.7044C19.7251 12.7904 19.6165 12.8333 19.4844 12.8333H14.9531C14.821 12.8333 14.7124 12.7904 14.6274 12.7044C14.5425 12.6185 14.5 12.5087 14.5 12.375V11.4583C14.5 11.3247 14.5425 11.2148 14.6274 11.1289C14.7124 11.043 14.821 11 14.9531 11H19.4844C19.6165 11 19.7251 11.043 19.8101 11.1289C19.895 11.2148 19.9375 11.3247 19.9375 11.4583ZM25.375 11.4583V12.375C25.375 12.5087 25.3325 12.6185 25.2476 12.7044C25.1626 12.7904 25.054 12.8333 24.9219 12.8333H22.2031C22.071 12.8333 21.9624 12.7904 21.8774 12.7044C21.7925 12.6185 21.75 12.5087 21.75 12.375V11.4583C21.75 11.3247 21.7925 11.2148 21.8774 11.1289C21.9624 11.043 22.071 11 22.2031 11H24.9219C25.054 11 25.1626 11.043 25.2476 11.1289C25.3325 11.2148 25.375 11.3247 25.375 11.4583ZM25.375 7.79167V8.70833C25.375 8.84201 25.3325 8.95182 25.2476 9.03776C25.1626 9.1237 25.054 9.16667 24.9219 9.16667H14.9531C14.821 9.16667 14.7124 9.1237 14.6274 9.03776C14.5425 8.95182 14.5 8.84201 14.5 8.70833V7.79167C14.5 7.65799 14.5425 7.54818 14.6274 7.46224C14.7124 7.3763 14.821 7.33333 14.9531 7.33333H24.9219C25.054 7.33333 25.1626 7.3763 25.2476 7.46224C25.3325 7.54818 25.375 7.65799 25.375 7.79167ZM27.1875 19.7083V3.66667H1.8125V19.7083C1.8125 19.8325 1.85734 19.9399 1.94702 20.0306C2.0367 20.1213 2.1429 20.1667 2.26562 20.1667H26.7344C26.8571 20.1667 26.9633 20.1213 27.053 20.0306C27.1427 19.9399 27.1875 19.8325 27.1875 19.7083ZM29 2.29167V19.7083C29 20.3385 28.7782 20.878 28.3345 21.3268C27.8908 21.7756 27.3574 22 26.7344 22H2.26562C1.64258 22 1.10921 21.7756 0.665527 21.3268C0.221842 20.878 0 20.3385 0 19.7083V2.29167C0 1.66146 0.221842 1.12196 0.665527 0.673177C1.10921 0.224392 1.64258 0 2.26562 0H26.7344C27.3574 0 27.8908 0.224392 28.3345 0.673177C28.7782 1.12196 29 1.66146 29 2.29167Z" fill="black"/>
</svg>
