<svg xmlns="http://www.w3.org/2000/svg" viewBox="0 0 369.56 71.39"><defs><style>.cls-1{fill:#203f5e;}.cls-2{fill:#ff5057;}</style></defs><title>Asset 1gotradie</title><g id="Layer_2" data-name="Layer 2"><g id="Layer_1-2" data-name="Layer 1"><path class="cls-1" d="M142.37,59.16h10.77v11a68.08,68.08,0,0,1-13.21,1.22H136q-6.93,0-10.92-4t-4-10.78V32.8h-8.15V20.45h8.15V7.52h15.71V20.45h15.9V32.73h-15.9v20.8Q136.78,59.16,142.37,59.16Z"/><path class="cls-1" d="M178,19.61h1.75a91.63,91.63,0,0,1,16.12,1.31v11H181q-5.91,0-5.91,5.82v32.8H159.47V37Q159.47,19.61,178,19.61Z"/><path class="cls-1" d="M243.13,37.23v32a119.67,119.67,0,0,1-23.06,2.06H215q-8.34,0-12.75-3.7t-4.4-10.45V53.77q0-6.84,4.4-10.55T215,39.52h3.38a62.86,62.86,0,0,1,9.09.66V37q0-6-6.19-6H202.17V21.06a117.94,117.94,0,0,1,19.5-1.5h2.43Q243.14,19.61,243.13,37.23ZM221.48,50.16h-3c-3.31,0-5,1.38-5,4.12v1.6q0,4.13,5,4.12H222a31,31,0,0,0,5.53-.37v-9A30.94,30.94,0,0,0,221.48,50.16Z"/><path class="cls-1" d="M295.47,2.83V68.62a91.68,91.68,0,0,1-23.62,2.72h-3.47q-18.93,0-18.93-17.52V37.23q0-17.62,18.93-17.62h3.29a61.88,61.88,0,0,1,8.15.75V2.83Zm-30.37,36v13.4q0,6.27,6.38,6.28h1.69a47.64,47.64,0,0,0,6.65-.47V33.1a32.24,32.24,0,0,0-6.28-.56h-2.06q-6.37,0-6.38,6.28Z"/><path class="cls-1" d="M309.53,15.48a9.25,9.25,0,0,1-6.51-2.2,7.12,7.12,0,0,1-2.39-5.48A7.22,7.22,0,0,1,303,2.22,9.16,9.16,0,0,1,309.53,0a9.33,9.33,0,0,1,6.61,2.2,7.29,7.29,0,0,1,2.39,5.58,7.16,7.16,0,0,1-2.39,5.48A9.42,9.42,0,0,1,309.53,15.48Zm-7.78,55v-50H317.4v50Z"/><path class="cls-1" d="M369.56,38v12.7H339.28v2.81c0,2.38.52,4.06,1.55,5.06s2.67,1.5,4.92,1.5h21.56V70a124.65,124.65,0,0,1-19.59,1.4h-3.66q-10.68,0-15.51-4.54t-4.77-13.78V38q0-9.21,4.87-13.78t15.46-4.59h5.07q10.68,0,15.55,4.59T369.56,38Zm-30.28-1.5v3.75h14.63V37.79q0-6.75-5.72-6.75H345a5.79,5.79,0,0,0-4.26,1.45A5.39,5.39,0,0,0,339.28,36.48Z"/><path class="cls-2" d="M59.52,53.07V38q0-9.21,4.87-13.78t15.46-4.59h7.5q10.68,0,15.56,4.59T107.78,38V53.07q0,9.18-4.87,13.73T87.35,71.34h-7.5q-10.59,0-15.46-4.54T59.52,53.07Zm32.61-.47v-13c0-2.81-.48-4.8-1.45-6s-2.64-1.74-5-1.74h-4q-3.65,0-5.06,1.74c-.93,1.15-1.4,3.14-1.4,6V51.5q0,4.13,1.45,5.91c1,1.18,2.64,1.78,5,1.78h4q3.38,0,4.92-1.55C91.62,56.58,92.13,54.91,92.13,52.6Z"/><path class="cls-2" d="M18.93,19.75c1.5-1.54,3.78-2.3,6.85-2.3H54.05v-12A98.14,98.14,0,0,0,35.31,3.86H23.9q-12.75,0-18.32,5.39T0,26.73V48.57Q0,60.66,5.58,66T23.9,71.34h10A109.71,109.71,0,0,0,54,69.56V32H26.64V47.8h7.81V42.68l16.3,9.4-16.3,9.41V57.75H25.78c-3.07,0-5.35-.74-6.85-2.2s-2.25-3.89-2.25-7.26V27Q16.68,22,18.93,19.75Z"/></g></g></svg>