<svg width="28" height="22" viewBox="0 0 28 22" fill="none" xmlns="http://www.w3.org/2000/svg">
<path d="M0.666748 1.6585C0.669188 1.35211 0.809282 1.05885 1.05677 0.842087C1.30425 0.625321 1.63925 0.502444 1.98941 0.5H26.0107C26.7414 0.5 27.3334 1.01917 27.3334 1.6585V20.3415C27.331 20.6479 27.1909 20.9411 26.9434 21.1579C26.6959 21.3747 26.3609 21.4976 26.0107 21.5H1.98941C1.6385 21.4997 1.30208 21.3775 1.05407 21.1603C0.806057 20.943 0.666748 20.6486 0.666748 20.3415V1.6585ZM3.33341 2.83333V19.1667H24.6667V2.83333H3.33341ZM6.00008 5.16667H14.0001V12.1667H6.00008V5.16667ZM8.66675 7.5V9.83333H11.3334V7.5H8.66675ZM6.00008 14.5H22.0001V16.8333H6.00008V14.5ZM16.6667 5.16667H22.0001V7.5H16.6667V5.16667ZM16.6667 9.83333H22.0001V12.1667H16.6667V9.83333Z" fill="black"/>
</svg>
