<svg xmlns="http://www.w3.org/2000/svg" width="40" height="40" fill="none" viewBox="0 0 40 40">
    <path fill="#fff" fill-rule="evenodd" d="M6.667 9.167C6.667 6.865 8.532 5 10.833 5h18.334c2.3 0 4.166 1.865 4.166 4.167v15C33.333 30.15 28.483 35 22.5 35H10.833c-2.3 0-4.166-1.865-4.166-4.167V9.167zm25 0v15c0 1.38-1.12 2.5-2.5 2.5-2.302 0-4.167 1.865-4.167 4.166 0 1.381-1.12 2.5-2.5 2.5H10.833c-1.38 0-2.5-1.119-2.5-2.5V9.167c0-1.381 1.12-2.5 2.5-2.5h18.334c1.38 0 2.5 1.119 2.5 2.5zm-2.5 19.166c.593 0 1.158-.124 1.669-.347-.915 1.993-2.524 3.602-4.517 4.516.224-.51.348-1.075.348-1.669 0-1.38 1.119-2.5 2.5-2.5zM13.333 14.168c0 .46.373.833.834.833h11.666c.46 0 .834-.373.834-.833 0-.46-.373-.834-.834-.834H14.167c-.46 0-.834.373-.834.834zM14.167 20c-.46 0-.834-.373-.834-.833 0-.46.373-.834.834-.834h11.666c.46 0 .834.373.834.834 0 .46-.373.833-.834.833H14.167zm-.834 4.167c0 .46.373.833.834.833H22.5c.46 0 .833-.373.833-.833 0-.46-.373-.834-.833-.834h-8.333c-.46 0-.834.373-.834.834z" clip-rule="evenodd"/>
</svg>
