<svg xmlns="http://www.w3.org/2000/svg" width="30" height="30" fill="none" viewBox="0 0 30 30">
    <path fill="#272848" fill-rule="evenodd" d="M23.75 22.52v3.136c0 .345-.28.625-.625.625H6.875c-.345 0-.625-.28-.625-.625V22.5H4.375c-1.036 0-1.875-.84-1.875-1.875v-6.25c0-1.726 1.4-3.125 3.125-3.125h.625V4.375c0-.345.28-.625.624-.625l16.25-.016c.346 0 .626.28.626.625v6.891h.625c1.726 0 3.125 1.4 3.125 3.125v6.27c0 1.035-.84 1.875-1.875 1.875H23.75zm0-1.25h1.875c.345 0 .625-.28.625-.625v-6.27c0-1.036-.84-1.875-1.875-1.875h-.625v4.39c0 .346-.28.626-.625.626H6.875c-.345 0-.625-.28-.625-.625V12.5h-.625c-1.036 0-1.875.84-1.875 1.875v6.25c0 .345.28.625.625.625H6.25v-1.875c0-.345.28-.625.625-.625h16.25c.345 0 .625.28.625.625v1.895zM22.5 4.985V16.266h-15V4.999l15-.014zM10.625 8.75c-.345 0-.625-.28-.625-.625s.28-.625.625-.625h8.75c.345 0 .625.28.625.625s-.28.625-.625.625h-8.75zM10 10.625c0 .345.28.625.625.625h8.75c.345 0 .625-.28.625-.625S19.72 10 19.375 10h-8.75c-.345 0-.625.28-.625.625zm.625 3.125c-.345 0-.625-.28-.625-.625s.28-.625.625-.625h6.25c.345 0 .625.28.625.625s-.28.625-.625.625h-6.25zM7.5 25.031V20h15v5.031h-15z" clip-rule="evenodd"/>
</svg>
