<svg width="22" height="25" viewBox="0 0 22 25" fill="none" xmlns="http://www.w3.org/2000/svg">
<path d="M19.6429 10.7143H17.8571V7.14286C17.8571 3.21429 14.6429 0 10.7143 0C6.78571 0 3.57143 3.21429 3.57143 7.14286V10.7143H1.78571C0.892857 10.7143 0 11.6071 0 12.5V23.2143C0 24.1071 0.892857 25 1.78571 25H19.6429C20.5357 25 21.4286 24.1071 21.4286 23.2143V12.5C21.4286 11.6071 20.5357 10.7143 19.6429 10.7143ZM7.14286 7.14286C7.14286 5.17857 8.75 3.57143 10.7143 3.57143C12.6786 3.57143 14.2857 5.17857 14.2857 7.14286V10.7143H7.14286V7.14286Z" fill="black"/>
</svg>
