<svg width="178" height="40" viewBox="0 0 178 40" fill="none" xmlns="http://www.w3.org/2000/svg">
<g clip-path="url(#clip0)">
<path d="M34.0297 38.806L30.5153 1.88463C30.4317 1.00901 29.2039 0.563234 28.37 1.10453L28.171 1.22791C27.8785 1.41374 27.5311 1.49376 27.1868 1.45465C26.8425 1.41555 26.5219 1.25967 26.2785 1.01299L25.9959 0.692587C25.7811 0.474389 25.5053 0.326402 25.2048 0.268138C24.9042 0.209874 24.593 0.244071 24.3123 0.366219L21.4924 1.59209C21.2505 1.69485 20.9865 1.73451 20.7251 1.70736C20.4637 1.68021 20.2135 1.58714 19.9979 1.43687L18.4297 0.278657C18.2229 0.134124 17.9839 0.0422638 17.7335 0.0110516C17.4831 -0.0201606 17.2289 0.0102189 16.9929 0.0995522L12.9989 1.61C12.7524 1.70484 12.4856 1.73471 12.2242 1.69672C11.9629 1.65873 11.7157 1.55417 11.5063 1.39308L10.3581 0.439851C10.1221 0.256203 9.83774 0.145391 9.53975 0.121C9.24176 0.0966095 8.94313 0.1597 8.68047 0.302537L5.71131 1.94035C5.44198 2.0866 5.13501 2.14885 4.82997 2.11905C4.52494 2.08926 4.23582 1.96879 3.99987 1.77318C3.20385 1.05677 1.74713 1.49657 1.69539 2.47169L-0.000129181 34.4617C-0.0299799 35.017 0.443652 35.5025 1.10634 35.5961L32.4835 39.9742C33.3392 40.1035 34.1014 39.5264 34.0297 38.806ZM18.9849 13.6617C19.0676 13.2552 19.269 12.8824 19.5636 12.5903C19.8582 12.2983 20.2328 12.1001 20.64 12.0209C21.0471 11.9417 21.4687 11.9851 21.8513 12.1454C22.2338 12.3058 22.5603 12.576 22.7893 12.9219C23.0183 13.2678 23.1396 13.6738 23.1379 14.0886C23.1361 14.5034 23.0114 14.9084 22.7795 15.2524C22.5476 15.5963 22.219 15.8638 21.8351 16.021C21.4512 16.1782 21.0293 16.218 20.6228 16.1354C20.3528 16.0805 20.0963 15.973 19.8678 15.819C19.6394 15.665 19.4436 15.4675 19.2915 15.2378C19.1394 15.0081 19.034 14.7507 18.9814 14.4803C18.9288 14.2098 18.93 13.9317 18.9849 13.6617ZM9.0347 13.6617C9.11739 13.2552 9.31876 12.8824 9.61334 12.5903C9.90793 12.2983 10.2825 12.1001 10.6897 12.0209C11.0969 11.9417 11.5184 11.9851 11.901 12.1454C12.2836 12.3058 12.61 12.576 12.839 12.9219C13.068 13.2678 13.1893 13.6738 13.1876 14.0886C13.1859 14.5034 13.0612 14.9084 12.8293 15.2524C12.5974 15.5963 12.2687 15.8638 11.8848 16.021C11.5009 16.1782 11.079 16.218 10.6725 16.1354C10.1287 16.0228 9.65179 15.6992 9.34626 15.2355C9.04073 14.7718 8.93155 14.2058 9.04266 13.6617H9.0347ZM17.7252 29.6677C13.0247 29.9145 8.55709 27.6777 7.17798 24.2568H26.772C25.578 27.2816 21.9302 29.4528 17.7332 29.6677H17.7252Z" fill="#6E33FF"/>
<path d="M42.8635 13.4588C42.8775 13.421 42.8954 13.3832 42.9053 13.3454C42.9716 13.0547 43.1069 12.7842 43.2999 12.557C43.4929 12.3297 43.7378 12.1524 44.014 12.0399C44.2901 11.9274 44.5892 11.8831 44.8861 11.9109C45.1829 11.9386 45.4687 12.0375 45.7192 12.1991C45.967 12.342 46.1716 12.549 46.3117 12.7983C46.4517 13.0477 46.5221 13.3301 46.5153 13.616C46.5312 14.8558 46.5153 16.0956 46.5252 17.3354V17.6419H52.6307V17.3354C52.6307 16.213 52.6307 15.0886 52.6307 13.9663C52.6263 13.7498 52.6409 13.5334 52.6745 13.3195C52.8416 12.4479 53.5401 11.9265 54.4854 11.9265C55.56 11.9444 56.2426 12.6051 56.2904 13.6797C56.2904 13.7712 56.2904 13.8628 56.2904 13.9543C56.2904 17.6837 56.2904 21.4124 56.2904 25.1404C56.2948 25.381 56.2721 25.6213 56.2227 25.8568C56.0357 26.6827 55.3391 27.1782 54.4317 27.1583C53.371 27.1364 52.6784 26.5016 52.6406 25.4429C52.6068 24.0956 52.6287 22.7484 52.6247 21.3991V21.0688H46.5212V21.3613C46.5212 22.6349 46.5212 23.9086 46.5212 25.1822C46.5261 25.4393 46.4987 25.6961 46.4396 25.9464C46.2307 26.7225 45.5282 27.1862 44.6486 27.1583C43.7053 27.1265 43.1441 26.6707 42.9113 25.7474C42.9113 25.7095 42.8834 25.6737 42.8695 25.6359L42.8635 13.4588Z" fill="#213f5e"/>
<path d="M149.93 22.0577L150.8 19.2C151.039 18.4199 151.266 17.6398 151.512 16.8637C151.612 16.5061 151.835 16.1953 152.141 15.9863C152.448 15.7772 152.819 15.6834 153.188 15.7214C154.06 15.7652 154.655 16.2209 154.824 16.9891C154.906 17.4088 154.866 17.8432 154.708 18.2408C154.154 19.8076 153.593 21.3718 153.027 22.9334C152.724 23.7771 152.42 24.6209 152.107 25.4607C152.011 25.7176 151.897 25.9676 151.767 26.209C151.631 26.4829 151.424 26.7147 151.166 26.8798C150.909 27.0449 150.612 27.137 150.306 27.1463C150.09 27.1582 149.874 27.1582 149.658 27.1463C149.389 27.1424 149.127 27.0664 148.899 26.9264C148.67 26.7863 148.483 26.5873 148.358 26.3503C148.163 25.9748 147.998 25.585 147.863 25.1841C147.5 24.1314 147.158 23.0727 146.808 22.0159C146.784 21.9463 146.758 21.8766 146.708 21.7373C146.659 21.8687 146.627 21.9363 146.601 22.0239C146.239 23.1284 145.884 24.2368 145.512 25.3373C145.405 25.6605 145.272 25.9746 145.114 26.2766C144.987 26.5314 144.794 26.7474 144.555 26.9021C144.316 27.0568 144.04 27.1446 143.755 27.1562C142.531 27.2557 141.799 26.8219 141.367 25.6717C140.479 23.2637 139.612 20.8478 138.738 18.4358C138.56 17.9946 138.5 17.5143 138.565 17.0428C138.71 16.201 139.51 15.6498 140.442 15.7333C140.783 15.7405 141.112 15.8621 141.376 16.0786C141.639 16.2952 141.823 16.5941 141.896 16.9274C142.385 18.5327 142.87 20.1387 143.353 21.7453C143.379 21.8289 143.409 21.9105 143.457 22.0498C143.502 21.9184 143.532 21.8508 143.556 21.7712C144.04 20.2329 144.517 18.6945 145.005 17.1582C145.204 16.5433 145.516 16.0179 146.183 15.809C146.511 15.6887 146.87 15.6843 147.201 15.7966C147.532 15.9088 147.815 16.1309 148.002 16.4259C148.214 16.7626 148.381 17.126 148.497 17.5065C148.957 18.9373 149.391 20.3761 149.835 21.813C149.851 21.8647 149.882 21.9264 149.93 22.0577Z" fill="#213f5e"/>
<path d="M99.9004 26.1254C99.8756 26.1357 99.8522 26.1491 99.8307 26.1652C98.4377 27.8309 95.9203 27.6697 94.4158 26.5632C93.7525 26.077 93.1976 25.4581 92.7865 24.7458C92.3753 24.0335 92.1169 23.2435 92.0278 22.4259C91.7909 20.6707 92.1173 19.0229 93.178 17.5761C94.189 16.1831 95.5382 15.4329 97.2954 15.5125C97.7669 15.5164 98.2318 15.6229 98.658 15.8246C99.0841 16.0264 99.4612 16.3185 99.7631 16.6806C99.7848 16.7059 99.808 16.7299 99.8327 16.7523C99.8327 16.7523 99.8487 16.7523 99.8765 16.7682C99.9044 16.7841 99.9084 16.7264 99.9223 16.7025C100.362 15.9065 101.086 15.5761 101.928 15.7811C102.314 15.8828 102.654 16.1124 102.892 16.4323C103.13 16.7523 103.253 17.1436 103.24 17.5423C103.24 18.7363 103.24 19.9304 103.24 21.1105C103.24 22.5254 103.24 23.9403 103.24 25.3552C103.255 25.7358 103.146 26.111 102.931 26.4254C102.716 26.7397 102.406 26.9764 102.046 27.1005C101.656 27.2373 101.23 27.226 100.849 27.069C100.467 26.9119 100.156 26.62 99.976 26.2488L99.9004 26.1254ZM99.7173 21.4349C99.7379 20.9054 99.6097 20.3807 99.3472 19.9204C99.1715 19.5912 98.9056 19.3189 98.5806 19.1356C98.2555 18.9523 97.885 18.8656 97.5123 18.8856C97.1465 18.8797 96.787 18.9817 96.4787 19.1788C96.1705 19.3759 95.9271 19.6595 95.779 19.9941C95.5427 20.4518 95.4221 20.9605 95.4277 21.4756C95.4332 21.9908 95.5648 22.4967 95.8108 22.9493C95.9727 23.2646 96.2158 23.5311 96.515 23.721C96.8143 23.9109 97.1588 24.0175 97.5131 24.0297C97.8673 24.0419 98.2184 23.9592 98.53 23.7902C98.8416 23.6213 99.1024 23.3722 99.2855 23.0687C99.5904 22.5797 99.7422 22.0107 99.7213 21.4349H99.7173Z" fill="#213f5e"/>
<path d="M134.667 26.1254C134.641 26.1352 134.618 26.1486 134.597 26.1652C133.204 27.8309 130.684 27.6697 129.182 26.5632C128.519 26.0769 127.964 25.458 127.553 24.7457C127.142 24.0335 126.883 23.2434 126.794 22.4259C126.557 20.6707 126.885 19.0229 127.944 17.5761C128.957 16.1831 130.306 15.4329 132.062 15.5125C132.532 15.5156 132.996 15.6208 133.422 15.8207C133.847 16.0207 134.225 16.3107 134.527 16.6707C134.549 16.696 134.572 16.7199 134.597 16.7423C134.597 16.7423 134.611 16.7423 134.641 16.7582C134.671 16.7742 134.673 16.7164 134.686 16.6926C135.126 15.8965 135.851 15.5662 136.692 15.7712C137.078 15.8731 137.418 16.1028 137.656 16.4227C137.894 16.7426 138.017 17.1338 138.004 17.5324C138.004 18.7264 138.004 19.9204 138.004 21.1005C138.004 22.5154 138.004 23.9304 138.004 25.3453C138.019 25.7259 137.911 26.1011 137.695 26.4154C137.48 26.7297 137.17 26.9665 136.81 27.0906C136.42 27.2278 135.994 27.2167 135.612 27.0596C135.231 26.9025 134.92 26.6103 134.74 26.2388L134.667 26.1254ZM134.483 21.4368C134.507 20.8251 134.331 20.2223 133.982 19.7194C133.791 19.4442 133.533 19.2217 133.233 19.0726C132.933 18.9235 132.6 18.8526 132.265 18.8665C131.93 18.8804 131.604 18.9786 131.318 19.1521C131.031 19.3255 130.793 19.5686 130.625 19.8587C130.332 20.3439 130.179 20.9007 130.184 21.4674C130.188 22.034 130.35 22.5883 130.651 23.0687C130.823 23.3504 131.062 23.5848 131.347 23.7511C131.632 23.9173 131.954 24.01 132.284 24.0208C132.614 24.0317 132.941 23.9604 133.236 23.8132C133.532 23.6661 133.786 23.4479 133.976 23.1781C134.33 22.6683 134.508 22.057 134.483 21.4368Z" fill="#213f5e"/>
<path d="M162.985 26.1235C162.959 26.1341 162.935 26.1482 162.913 26.1653C161.52 27.8309 159.003 27.6697 157.498 26.5633C156.835 26.0774 156.28 25.4585 155.868 24.7462C155.457 24.0338 155.199 23.2436 155.11 22.426C154.873 20.6707 155.2 19.023 156.261 17.5742C157.271 16.1931 158.621 15.4329 160.378 15.5125C160.85 15.5162 161.315 15.6228 161.741 15.8249C162.167 16.027 162.544 16.3197 162.846 16.6827C162.876 16.7253 162.903 16.7699 162.927 16.816C162.973 16.7483 162.991 16.7264 163.005 16.7006C163.445 15.9046 164.169 15.5762 165.011 15.7812C165.396 15.8828 165.736 16.1124 165.975 16.4324C166.213 16.7523 166.335 17.1437 166.322 17.5424C166.322 18.7483 166.322 19.9563 166.322 21.1623C166.322 22.5553 166.322 23.9483 166.322 25.3553C166.338 25.7454 166.224 26.1297 165.998 26.4478C165.772 26.766 165.446 26.9998 165.072 27.1125C164.692 27.2358 164.281 27.2184 163.913 27.0635C163.544 26.9086 163.244 26.6266 163.066 26.2687C163.043 26.219 163.017 26.1772 162.985 26.1235ZM162.8 21.4429C162.821 20.8402 162.653 20.2459 162.32 19.7434C162.128 19.4622 161.867 19.2347 161.562 19.0825C161.257 18.9303 160.918 18.8584 160.578 18.8735C160.237 18.8887 159.906 18.9904 159.616 19.1691C159.326 19.3477 159.086 19.5974 158.919 19.8946C158.641 20.3738 158.498 20.9189 158.503 21.4728C158.508 22.0267 158.662 22.569 158.949 23.0429C159.118 23.3293 159.355 23.569 159.64 23.7401C159.925 23.9112 160.248 24.0082 160.58 24.0222C160.912 24.0363 161.243 23.9669 161.541 23.8205C161.839 23.6742 162.096 23.4554 162.288 23.1842C162.645 22.6755 162.826 22.0638 162.802 21.4429H162.8Z" fill="#213f5e"/>
<path d="M111.564 20.7921C112.384 21.8548 113.25 22.9812 114.111 24.0936C114.268 24.2926 114.414 24.5115 114.563 24.7225C114.742 24.9501 114.847 25.2272 114.865 25.5164C114.882 25.8057 114.81 26.0932 114.659 26.3404C114.509 26.5776 114.306 26.776 114.065 26.9193C113.825 27.0626 113.553 27.1466 113.274 27.1645C112.994 27.1824 112.714 27.1336 112.457 27.0222C112.2 26.9107 111.973 26.7398 111.795 26.5235C111.068 25.5842 110.352 24.6329 109.634 23.6857C109.2 23.1165 108.774 22.5414 108.342 21.9702C108.294 21.9085 108.243 21.8488 108.143 21.7414V22.2667C108.143 23.3075 108.143 24.3483 108.143 25.3871C108.143 25.8197 107.983 26.2368 107.693 26.5584C107.404 26.88 107.006 27.0832 106.576 27.1292C106.146 27.1751 105.714 27.0604 105.363 26.8072C105.013 26.5539 104.768 26.18 104.676 25.7573C104.652 25.6261 104.641 25.4927 104.645 25.3593C104.645 21.1231 104.645 16.887 104.645 12.6508C104.635 12.416 104.672 12.1817 104.755 11.9616C104.837 11.7416 104.963 11.5404 105.125 11.37C105.287 11.1996 105.481 11.0635 105.697 10.9697C105.912 10.8759 106.144 10.8264 106.379 10.8242C106.614 10.8219 106.847 10.8669 107.065 10.9565C107.282 11.0461 107.479 11.1784 107.644 11.3457C107.809 11.5129 107.939 11.7116 108.026 11.93C108.112 12.1484 108.154 12.3821 108.149 12.617C108.149 14.8061 108.149 16.9772 108.149 19.1583V19.5026C108.245 19.413 108.308 19.3573 108.366 19.3036C109.305 18.3384 110.243 17.3692 111.188 16.4061C111.484 16.0616 111.891 15.8314 112.338 15.7553C112.653 15.7037 112.977 15.748 113.266 15.8825C113.556 16.017 113.798 16.2355 113.962 16.5095C114.14 16.7554 114.233 17.0528 114.227 17.3563C114.22 17.6599 114.115 17.953 113.926 18.1911C113.584 18.6162 113.22 19.0234 112.836 19.411C112.424 19.8648 112.004 20.3165 111.564 20.7921Z" fill="#213f5e"/>
<path d="M118.665 22.5872C118.695 22.9464 118.858 23.2814 119.122 23.5265C119.574 23.9603 120.145 24.0897 120.742 24.1454C121.685 24.2329 122.555 23.9802 123.395 23.5862C123.576 23.5006 123.755 23.413 123.938 23.3354C124.515 23.0887 125.053 23.1364 125.502 23.5981C125.722 23.7997 125.876 24.063 125.944 24.3534C126.012 24.6438 125.99 24.9479 125.882 25.226C125.726 25.6258 125.447 25.9662 125.086 26.1991C124.343 26.7231 123.489 27.0703 122.591 27.214C121.385 27.4489 120.171 27.5265 118.981 27.1683C116.734 26.4916 115.423 24.9374 115.001 22.6608C114.813 21.7811 114.827 20.8705 115.04 19.9967C115.253 19.1229 115.661 18.3084 116.233 17.614C118.37 14.9454 122.545 14.7125 124.776 17.3334C125.742 18.4484 126.231 19.899 126.135 21.3712C126.097 22.0996 125.737 22.4777 125.003 22.5513C124.787 22.5736 124.571 22.5849 124.354 22.5852H118.665V22.5872ZM118.702 20.1712H122.621C122.669 19.3275 121.703 18.4697 120.712 18.4558C119.721 18.4419 118.675 19.3235 118.702 20.1712Z" fill="#213f5e"/>
<path d="M172.326 21.616C172.388 21.4866 172.434 21.401 172.47 21.3135C173.019 20.0199 173.55 18.7264 174.123 17.4388C174.309 17.013 174.555 16.6162 174.854 16.2607C175.361 15.6637 176.147 15.5622 176.86 15.9045C177.174 16.0638 177.43 16.3199 177.588 16.6352C177.746 16.9504 177.799 17.3081 177.739 17.6558C177.658 18.1132 177.524 18.5599 177.341 18.9871C176.147 21.7553 174.925 24.5135 173.713 27.2757C173.315 28.203 172.901 29.1324 172.479 30.0617C172.334 30.3877 172.163 30.7012 171.966 30.999C171.722 31.3451 171.364 31.5937 170.955 31.7008C170.545 31.8079 170.111 31.7666 169.729 31.5841C169.367 31.4158 169.079 31.1197 168.922 30.7524C168.764 30.3852 168.748 29.9727 168.876 29.5941C169.039 29.0708 169.235 28.5583 169.463 28.0597C169.745 27.405 170.06 26.7602 170.364 26.1155C170.399 26.0465 170.418 25.9701 170.418 25.8926C170.418 25.8151 170.399 25.7387 170.364 25.6697C169.374 23.4143 168.391 21.1516 167.413 18.8816C167.26 18.5316 167.134 18.1703 167.037 17.801C166.961 17.5383 166.953 17.2608 167.012 16.9938C167.07 16.7268 167.195 16.4788 167.374 16.2722C167.553 16.0657 167.781 15.9071 168.037 15.8109C168.293 15.7147 168.569 15.684 168.84 15.7214C169.196 15.7421 169.537 15.8685 169.821 16.0844C170.104 16.3003 170.317 16.5959 170.432 16.9334L172.183 21.2796C172.223 21.3831 172.267 21.4766 172.326 21.616Z" fill="#213f5e"/>
<path d="M86.3442 15.4527C85.7333 15.4527 85.1601 15.4527 84.587 15.4527C84.3376 15.4526 84.0892 15.4233 83.8467 15.3652C83.0507 15.1542 82.6367 14.5433 82.6726 13.6299C82.6732 13.2625 82.8055 12.9076 83.0453 12.6294C83.2852 12.3512 83.6168 12.1682 83.98 12.1134C84.1685 12.0793 84.3596 12.062 84.5512 12.0617C86.9724 12.0617 89.3943 12.0617 91.8168 12.0617C92.0326 12.0603 92.2478 12.085 92.4576 12.1353C93.2835 12.3343 93.7193 12.999 93.6656 13.9264C93.6552 14.2973 93.5097 14.6516 93.2565 14.9227C93.0033 15.1939 92.6598 15.3633 92.2905 15.399C91.6636 15.4627 91.0268 15.4368 90.3959 15.4488C90.2726 15.4488 90.1472 15.4488 89.986 15.4488V15.7811C89.986 18.8935 89.986 22.006 89.986 25.1184C89.9934 25.3266 89.9828 25.535 89.9541 25.7413C89.7969 26.6527 89.1004 27.194 88.1372 27.1682C87.0845 27.1403 86.4318 26.5174 86.3601 25.4687C86.3502 25.3274 86.3502 25.1861 86.3502 25.0448C86.3502 21.9668 86.3502 18.8876 86.3502 15.807L86.3442 15.4527Z" fill="#213f5e"/>
<path d="M60.8955 22.3424C60.9256 22.7016 61.0888 23.0367 61.3533 23.2817C61.805 23.7155 62.3761 23.8449 62.9732 23.9006C63.9164 23.9882 64.7861 23.7354 65.6259 23.3394C65.807 23.2558 65.9861 23.1683 66.1692 23.0907C66.7463 22.8439 67.2836 22.8917 67.7334 23.3533C67.9531 23.555 68.1069 23.8182 68.1747 24.1086C68.2425 24.399 68.2212 24.7031 68.1135 24.9812C67.9567 25.381 67.6783 25.7215 67.3174 25.9543C66.5738 26.4784 65.7202 26.8255 64.8219 26.9693C63.6159 27.2041 62.402 27.2817 61.212 26.9235C58.9652 26.2449 57.6537 24.6926 57.2319 22.416C57.0444 21.5363 57.0579 20.6257 57.2711 19.7519C57.4844 18.8781 57.8921 18.0637 58.4637 17.3693C60.601 14.7006 64.7761 14.4678 67.001 17.0887C67.9676 18.2034 68.456 19.6541 68.3602 21.1265C68.3224 21.8548 67.9622 22.2329 67.2279 22.3066C67.0123 22.3288 66.7958 22.3401 66.5791 22.3404H60.8955V22.3424ZM60.9334 19.9245H64.8518C64.8995 19.0827 63.9344 18.225 62.9433 18.2111C61.9523 18.1971 60.8955 19.0767 60.9274 19.9245H60.9334Z" fill="#213f5e"/>
<path d="M73.8925 21.616C73.9542 21.4866 73.998 21.4011 74.0358 21.3135C74.5831 20.02 75.1164 18.7264 75.6875 17.4389C75.873 17.013 76.119 16.6162 76.4179 16.2608C76.9254 15.6638 77.7134 15.5623 78.4239 15.9045C78.7391 16.0633 78.9948 16.3194 79.1532 16.6348C79.3116 16.9501 79.3643 17.3081 79.3035 17.6558C79.2219 18.1133 79.0883 18.5599 78.9055 18.9871C77.7114 21.7553 76.4876 24.5135 75.2756 27.2757C74.8676 28.2031 74.4637 29.1324 74.0438 30.0618C73.898 30.3878 73.7256 30.7013 73.5283 30.9991C73.2847 31.3452 72.9264 31.5938 72.517 31.7009C72.1075 31.808 71.6734 31.7666 71.2915 31.5842C70.9291 31.4159 70.6417 31.1196 70.4844 30.7523C70.3272 30.3849 70.3113 29.9725 70.4398 29.5941C70.6023 29.0708 70.7977 28.5584 71.0249 28.0598C71.3074 27.405 71.6219 26.7603 71.9263 26.1155C71.9621 26.0466 71.9808 25.9702 71.9808 25.8926C71.9808 25.815 71.9621 25.7386 71.9263 25.6697C70.9366 23.4143 69.9529 21.1516 68.9751 18.8817C68.8229 18.5316 68.6978 18.1703 68.601 17.8011C68.5249 17.5383 68.5159 17.2606 68.5746 16.9934C68.6333 16.7262 68.758 16.4779 68.9372 16.2712C69.1164 16.0645 69.3445 15.9059 69.6007 15.8099C69.8569 15.7139 70.133 15.6835 70.404 15.7215C70.7598 15.7421 71.1014 15.8685 71.385 16.0844C71.6686 16.3003 71.8813 16.5959 71.996 16.9334C72.5784 18.3808 73.1628 19.8342 73.7492 21.2936C73.787 21.3832 73.8308 21.4767 73.8925 21.616Z" fill="#213f5e"/>
</g>
<defs>
<clipPath id="clip0">
<rect width="177.765" height="40" fill="white"/>
</clipPath>
</defs>
</svg>
