<svg width="49" height="31" viewBox="0 0 49 31" fill="none" xmlns="http://www.w3.org/2000/svg">
<path fill-rule="evenodd" clip-rule="evenodd" d="M47.1123 25.153V25.0204H47.2444V25.153H47.1123Z" fill="#FBB231"/>
<path d="M31.4604 3.7959H17.3276V26.9439H31.4604V3.7959Z" fill="#FF5F00"/>
<path d="M18.7805 15.3367C18.7805 10.8265 20.8277 6.5816 24.3939 3.79589C18.054 -1.24493 8.80828 -0.117378 3.85521 6.24997C-1.09786 12.6173 -0.0412073 21.903 6.29872 26.8775C11.582 31.0561 19.1107 31.0561 24.3939 26.8775C20.8277 24.1581 18.7805 19.9132 18.7805 15.3367Z" fill="#EB001B"/>
<path d="M46.6499 24.4898V24.0255H46.848V23.9592H46.3857V24.0255H46.5839V24.4898H46.6499ZM47.5745 24.4898V23.8928H47.4424L47.2443 24.2908L47.0461 23.8928H46.9141V24.4898H47.0461V24.0255L47.1782 24.4234H47.3103L47.4424 24.0255V24.4898H47.5745Z" fill="#F79E1B"/>
<path d="M48.0368 15.3367C48.0368 23.4286 41.4988 30.0612 33.3757 30.0612C30.0737 30.0612 26.9037 28.9337 24.3281 26.9439C30.6681 21.9031 31.7908 12.6837 26.7716 6.31631C26.0452 5.38774 25.2527 4.59182 24.3281 3.86223C30.6681 -1.17858 39.9138 -0.051033 44.8669 6.31631C46.9802 8.83672 48.0368 12.0867 48.0368 15.3367Z" fill="#F79E1B"/>
</svg>
