<svg width="40" height="40" viewBox="0 0 40 40" fill="none" xmlns="http://www.w3.org/2000/svg">
<path d="M26.6667 5H3.31667C1.48333 5 0 6.5 0 8.33333L0.0166667 31.6667C0.0166667 33.5 1.5 35 3.33333 35H20L30 25V8.33333C30 6.5 28.5 5 26.6667 5ZM8.33333 13.3333H21.6667C22.5833 13.3333 23.3333 14.0833 23.3333 15C23.3333 15.9167 22.5833 16.6667 21.6667 16.6667H8.33333C7.41667 16.6667 6.66667 15.9167 6.66667 15C6.66667 14.0833 7.41667 13.3333 8.33333 13.3333ZM13.3333 23.3333H8.33333C7.41667 23.3333 6.66667 22.5833 6.66667 21.6667C6.66667 20.75 7.41667 20 8.33333 20H13.3333C14.25 20 15 20.75 15 21.6667C15 22.5833 14.25 23.3333 13.3333 23.3333ZM18.3333 32.5V25C18.3333 24.0833 19.0833 23.3333 20 23.3333H27.5L18.3333 32.5Z" fill="black"/>
</svg>
