<svg width="27" height="26" viewBox="0 0 27 26" fill="none" xmlns="http://www.w3.org/2000/svg">
<path d="M24.7222 2C25.0611 2 25.3861 2.12643 25.6257 2.35147C25.8654 2.57652 26 2.88174 26 3.2V24.8C26 25.1183 25.8654 25.4235 25.6257 25.6485C25.3861 25.8736 25.0611 26 24.7222 26H4.27778C3.93889 26 3.61388 25.8736 3.37425 25.6485C3.13462 25.4235 3 25.1183 3 24.8V3.2C3 2.88174 3.13462 2.57652 3.37425 2.35147C3.61388 2.12643 3.93889 2 4.27778 2H24.7222ZM23.4444 4.4H5.55556V23.6H23.4444V4.4ZM19.6111 18.8V21.2H9.38889V18.8H19.6111ZM14.5 6.8C15.8556 6.8 17.1556 7.30571 18.1141 8.20589C19.0726 9.10606 19.6111 10.327 19.6111 11.6C19.6111 12.873 19.0726 14.0939 18.1141 14.9941C17.1556 15.8943 15.8556 16.4 14.5 16.4C13.1444 16.4 11.8444 15.8943 10.8859 14.9941C9.92738 14.0939 9.38889 12.873 9.38889 11.6C9.38889 10.327 9.92738 9.10606 10.8859 8.20589C11.8444 7.30571 13.1444 6.8 14.5 6.8ZM14.5 9.2C13.8222 9.2 13.1722 9.45286 12.693 9.90294C12.2137 10.353 11.9444 10.9635 11.9444 11.6C11.9444 12.2365 12.2137 12.847 12.693 13.2971C13.1722 13.7471 13.8222 14 14.5 14C15.1778 14 15.8278 13.7471 16.3071 13.2971C16.7863 12.847 17.0556 12.2365 17.0556 11.6C17.0556 10.9635 16.7863 10.353 16.3071 9.90294C15.8278 9.45286 15.1778 9.2 14.5 9.2Z" fill="black"/>
</svg>
