<svg width="50" height="46" viewBox="0 0 50 46" fill="none" xmlns="http://www.w3.org/2000/svg">
<path d="M49.2344 41.0469H4.89062V0.828125C4.89062 0.544531 4.65859 0.3125 4.375 0.3125H0.765625C0.482031 0.3125 0.25 0.544531 0.25 0.828125V45.1719C0.25 45.4555 0.482031 45.6875 0.765625 45.6875H49.2344C49.518 45.6875 49.75 45.4555 49.75 45.1719V41.5625C49.75 41.2789 49.518 41.0469 49.2344 41.0469ZM11.7098 31.1018C11.9096 31.3016 12.2318 31.3016 12.4381 31.1018L21.352 22.233L29.5762 30.5088C29.776 30.7086 30.1047 30.7086 30.3045 30.5088L48.0549 12.7648C48.2547 12.565 48.2547 12.2363 48.0549 12.0365L45.5025 9.48418C45.4056 9.38822 45.2748 9.33439 45.1384 9.33439C45.002 9.33439 44.8711 9.38822 44.7742 9.48418L29.95 24.302L21.7387 16.0391C21.6418 15.9431 21.5109 15.8893 21.3745 15.8893C21.2381 15.8893 21.1073 15.9431 21.0104 16.0391L9.16387 27.8146C9.06791 27.9116 9.01408 28.0424 9.01408 28.1788C9.01408 28.3152 9.06791 28.4461 9.16387 28.543L11.7098 31.1018Z" fill="black"/>
</svg>
