<svg width="38" height="46" viewBox="0 0 38 46" fill="none" xmlns="http://www.w3.org/2000/svg">
<path d="M32.8001 0H5.2001C2.6701 0 0.600098 2.0677 0.600098 4.6V41.4C0.600098 43.93 2.6701 46 5.2001 46H32.8001C35.3324 46 37.4001 43.93 37.4001 41.4V4.6C37.4001 2.0677 35.3324 0 32.8001 0ZM19.0001 43.7C17.4131 43.7 16.1251 42.6719 16.1251 41.4C16.1251 40.1281 17.4131 39.1 19.0001 39.1C20.5848 39.1 21.8751 40.1281 21.8751 41.4C21.8751 42.6719 20.5848 43.7 19.0001 43.7ZM32.8001 36.8H5.2001V4.6H32.8001V36.8Z" fill="black"/>
</svg>
