<svg width="46" height="46" viewBox="0 0 46 46" fill="none" xmlns="http://www.w3.org/2000/svg">
<path d="M23 0C10.2987 0 0 10.2987 0 23C0 35.7013 10.2987 46 23 46C35.7013 46 46 35.7013 46 23C46 10.2987 35.7013 0 23 0ZM30.4955 33.7812C30.4955 34.0071 30.3107 34.192 30.0848 34.192H16.0281C15.8022 34.192 15.6174 34.0071 15.6174 33.7812V31.8047C15.6174 31.6147 15.7458 31.4504 15.9306 31.4042C18.1895 30.8446 19.6681 28.8886 19.6681 26.5681C19.6681 25.8134 19.5397 25.0587 19.3652 24.2989H15.9152C15.6893 24.2989 15.5045 24.1141 15.5045 23.8882V22.348C15.5045 22.1221 15.6893 21.9373 15.9152 21.9373H18.6721C18.2717 20.6487 17.9225 19.3344 17.9225 17.979C17.9225 14.0875 20.931 11.8029 25.7004 11.8029C27.0609 11.8029 28.3393 12.0853 29.3096 12.4549C29.4688 12.5165 29.5766 12.6705 29.5766 12.84V14.8679C29.5768 14.9334 29.5614 14.9981 29.5316 15.0564C29.5018 15.1148 29.4584 15.1652 29.4052 15.2034C29.3519 15.2416 29.2903 15.2665 29.2254 15.276C29.1605 15.2855 29.0944 15.2793 29.0324 15.258C28.1134 14.9295 27.0301 14.719 25.9315 14.719C23.1951 14.719 21.4496 16.0846 21.4496 18.323C21.4496 19.5911 21.7679 20.7821 22.1375 21.9424H27.8875C28.1134 21.9424 28.2982 22.1272 28.2982 22.3531V23.8933C28.2982 24.1192 28.1134 24.304 27.8875 24.304H22.8254C22.9846 24.9817 23.0975 25.685 23.0975 26.4089C23.0975 28.4984 22.2504 30.2029 20.8438 31.0859V31.3272H30.0848C30.3107 31.3272 30.4955 31.5121 30.4955 31.7379V33.7812Z" fill="black"/>
</svg>
