<svg width="24" height="24" viewBox="0 0 24 24" fill="none" xmlns="http://www.w3.org/2000/svg">
<path d="M22 0H2C1.46973 0.000529477 0.961329 0.211413 0.586371 0.586371C0.211413 0.961329 0.000529477 1.46973 0 2V22C0.000529477 22.5303 0.211413 23.0387 0.586371 23.4136C0.961329 23.7886 1.46973 23.9995 2 24H22C22.5303 23.9995 23.0387 23.7886 23.4136 23.4136C23.7886 23.0387 23.9995 22.5303 24 22V2C23.9995 1.46973 23.7886 0.961329 23.4136 0.586371C23.0387 0.211413 22.5303 0.000529477 22 0ZM14 2V6H10V2H14ZM2 22V2H8V8H16V2H22L22.001 22H2Z" fill="#272848"/>
</svg>
