<svg width="51" height="18" viewBox="0 0 51 18" fill="none" xmlns="http://www.w3.org/2000/svg">
<path d="M22.1061 16.8265H18.0776L20.5872 1.17346H24.6817L22.1061 16.8265Z" fill="#0066B2"/>
<path d="M14.6434 1.17346L10.813 11.9184L10.3507 9.59693L8.96387 2.56632C8.96387 2.56632 8.83179 1.17346 7.04868 1.17346H0.642701L0.57666 1.43877C0.57666 1.43877 2.55789 1.83673 4.80328 3.22958L8.3695 16.8265H12.5961L19.0021 1.17346H14.6434Z" fill="#0066B2"/>
<path d="M46.4749 16.8265H50.1732L46.9372 1.23975H43.7012C42.1822 1.23975 41.852 2.43362 41.852 2.43362L35.8423 16.8265H40.0689L40.9274 14.5051H46.0786L46.4749 16.8265ZM42.0501 11.2551L44.1635 5.41832L45.3522 11.2551H42.0501Z" fill="#0066B2"/>
<path d="M36.1064 4.95406L36.7007 1.57141C36.7007 1.57141 34.9176 0.908142 33.0685 0.908142C31.0873 0.908142 26.2663 1.77039 26.2663 6.08161C26.2663 10.1275 31.8797 10.1939 31.8797 12.25C31.8797 14.3724 26.8606 13.9745 25.2096 12.6479L24.6152 16.1632C24.6152 16.1632 26.3983 17.0255 29.1721 17.0255C31.9458 17.0255 36.1064 15.5663 36.1064 11.653C36.1064 7.60712 30.4268 7.20916 30.4268 5.48467C30.4929 3.76018 34.3893 4.02549 36.1064 4.95406Z" fill="#0066B2"/>
<path d="M10.3507 9.59693L8.96387 2.56632C8.96387 2.56632 8.83179 1.17346 7.04868 1.17346H0.642701L0.57666 1.43877C0.57666 1.43877 3.61455 2.10203 6.58639 4.48979C9.42616 6.74489 10.3507 9.59693 10.3507 9.59693Z" fill="#F9A533"/>
</svg>
