<svg width="178" height="40" viewBox="0 0 178 40" fill="none" xmlns="http://www.w3.org/2000/svg">
<g clip-path="url(#clip0)">
<path d="M34.0302 38.806L30.5158 1.88463C30.4322 1.00901 29.2043 0.563234 28.3705 1.10453L28.1715 1.22791C27.879 1.41374 27.5316 1.49376 27.1873 1.45465C26.8429 1.41555 26.5224 1.25967 26.279 1.01299L25.9964 0.692587C25.7816 0.474389 25.5058 0.326402 25.2052 0.268138C24.9047 0.209874 24.5935 0.244071 24.3128 0.366219L21.4929 1.59209C21.251 1.69485 20.987 1.73451 20.7256 1.70736C20.4642 1.68021 20.214 1.58714 19.9984 1.43687L18.4302 0.278657C18.2234 0.134124 17.9844 0.0422638 17.734 0.0110516C17.4836 -0.0201606 17.2294 0.0102189 16.9934 0.0995522L12.9994 1.61C12.7529 1.70484 12.4861 1.73471 12.2247 1.69672C11.9634 1.65873 11.7161 1.55417 11.5068 1.39308L10.3586 0.439851C10.1226 0.256203 9.83823 0.145391 9.54024 0.121C9.24225 0.0966095 8.94362 0.1597 8.68096 0.302537L5.7118 1.94035C5.44246 2.0866 5.1355 2.14885 4.83046 2.11905C4.52543 2.08926 4.23631 1.96879 4.00036 1.77318C3.20434 1.05677 1.74762 1.49657 1.69588 2.47169L0.0003591 34.4617C-0.0294917 35.017 0.44414 35.5025 1.10683 35.5961L32.4839 39.9742C33.3397 40.1035 34.1019 39.5264 34.0302 38.806ZM18.9854 13.6617C19.0681 13.2552 19.2695 12.8824 19.5641 12.5903C19.8587 12.2983 20.2332 12.1001 20.6404 12.0209C21.0476 11.9417 21.4692 11.9851 21.8517 12.1454C22.2343 12.3058 22.5608 12.576 22.7898 12.9219C23.0188 13.2678 23.1401 13.6738 23.1383 14.0886C23.1366 14.5034 23.0119 14.9084 22.78 15.2524C22.5481 15.5963 22.2195 15.8638 21.8356 16.021C21.4517 16.1782 21.0298 16.218 20.6232 16.1354C20.3533 16.0805 20.0967 15.973 19.8683 15.819C19.6399 15.665 19.444 15.4675 19.2919 15.2378C19.1399 15.0081 19.0345 14.7507 18.9819 14.4803C18.9293 14.2098 18.9305 13.9317 18.9854 13.6617ZM9.03519 13.6617C9.11788 13.2552 9.31925 12.8824 9.61383 12.5903C9.90842 12.2983 10.283 12.1001 10.6902 12.0209C11.0974 11.9417 11.5189 11.9851 11.9015 12.1454C12.2841 12.3058 12.6105 12.576 12.8395 12.9219C13.0685 13.2678 13.1898 13.6738 13.1881 14.0886C13.1864 14.5034 13.0617 14.9084 12.8298 15.2524C12.5979 15.5963 12.2692 15.8638 11.8853 16.021C11.5014 16.1782 11.0795 16.218 10.673 16.1354C10.1292 16.0228 9.65228 15.6992 9.34675 15.2355C9.04122 14.7718 8.93204 14.2058 9.04315 13.6617H9.03519ZM17.7257 29.6677C13.0252 29.9145 8.55757 27.6777 7.17847 24.2568H26.7725C25.5785 27.2816 21.9307 29.4528 17.7337 29.6677H17.7257Z" fill="#6E33FF"/>
<path d="M42.8643 13.4588C42.8782 13.421 42.8961 13.3832 42.9061 13.3454C42.9723 13.0547 43.1077 12.7842 43.3007 12.557C43.4936 12.3297 43.7386 12.1524 44.0147 12.0399C44.2908 11.9274 44.59 11.8831 44.8868 11.9109C45.1837 11.9386 45.4695 12.0375 45.72 12.1991C45.9677 12.342 46.1723 12.549 46.3124 12.7983C46.4525 13.0477 46.5228 13.3301 46.516 13.616C46.5319 14.8558 46.516 16.0956 46.5259 17.3354V17.6419H52.6314V17.3354C52.6314 16.213 52.6314 15.0886 52.6314 13.9663C52.627 13.7498 52.6417 13.5334 52.6752 13.3195C52.8424 12.4479 53.5409 11.9265 54.4861 11.9265C55.5608 11.9444 56.2434 12.6051 56.2911 13.6797C56.2911 13.7712 56.2911 13.8628 56.2911 13.9543C56.2911 17.6837 56.2911 21.4124 56.2911 25.1404C56.2955 25.381 56.2728 25.6213 56.2235 25.8568C56.0364 26.6827 55.3399 27.1782 54.4324 27.1583C53.3717 27.1364 52.6792 26.5016 52.6414 25.4429C52.6075 24.0956 52.6294 22.7484 52.6254 21.3991V21.0688H46.522V21.3613C46.522 22.6349 46.522 23.9086 46.522 25.1822C46.5269 25.4393 46.4995 25.6961 46.4404 25.9464C46.2314 26.7225 45.5289 27.1862 44.6493 27.1583C43.706 27.1265 43.1449 26.6707 42.912 25.7474C42.912 25.7095 42.8842 25.6737 42.8702 25.6359L42.8643 13.4588Z" fill="#213f5e"/>
<path d="M149.931 22.0577L150.8 19.2C151.039 18.4199 151.266 17.6398 151.513 16.8637C151.612 16.5061 151.835 16.1953 152.142 15.9863C152.448 15.7772 152.819 15.6834 153.188 15.7214C154.06 15.7652 154.655 16.2209 154.824 16.9891C154.906 17.4088 154.866 17.8432 154.709 18.2408C154.154 19.8076 153.594 21.3718 153.027 22.9334C152.725 23.7771 152.42 24.6209 152.108 25.4607C152.012 25.7176 151.898 25.9676 151.768 26.209C151.632 26.4829 151.424 26.7147 151.167 26.8798C150.91 27.0449 150.612 27.137 150.307 27.1463C150.091 27.1582 149.874 27.1582 149.658 27.1463C149.39 27.1424 149.128 27.0664 148.899 26.9264C148.671 26.7863 148.484 26.5873 148.359 26.3503C148.164 25.9748 147.998 25.585 147.863 25.1841C147.501 24.1314 147.159 23.0727 146.808 22.0159C146.784 21.9463 146.759 21.8766 146.709 21.7373C146.659 21.8687 146.627 21.9363 146.601 22.0239C146.239 23.1284 145.885 24.2368 145.513 25.3373C145.405 25.6605 145.272 25.9746 145.115 26.2766C144.988 26.5314 144.794 26.7474 144.555 26.9021C144.316 27.0568 144.04 27.1446 143.756 27.1562C142.532 27.2557 141.799 26.8219 141.368 25.6717C140.48 23.2637 139.612 20.8478 138.739 18.4358C138.56 17.9946 138.501 17.5143 138.566 17.0428C138.711 16.201 139.511 15.6498 140.442 15.7333C140.783 15.7405 141.112 15.8621 141.376 16.0786C141.64 16.2952 141.823 16.5941 141.897 16.9274C142.385 18.5327 142.871 20.1387 143.354 21.7453C143.379 21.8289 143.409 21.9105 143.457 22.0498C143.503 21.9184 143.533 21.8508 143.557 21.7712C144.04 20.2329 144.518 18.6945 145.005 17.1582C145.204 16.5433 145.517 16.0179 146.183 15.809C146.512 15.6887 146.871 15.6843 147.202 15.7966C147.533 15.9088 147.815 16.1309 148.002 16.4259C148.214 16.7626 148.381 17.126 148.498 17.5065C148.958 18.9373 149.391 20.3761 149.835 21.813C149.851 21.8647 149.883 21.9264 149.931 22.0577Z" fill="#213f5e"/>
<path d="M99.9009 26.1254C99.8761 26.1357 99.8527 26.1491 99.8312 26.1652C98.4382 27.8309 95.9208 27.6697 94.4163 26.5632C93.753 26.077 93.1981 25.4581 92.7869 24.7458C92.3758 24.0335 92.1174 23.2435 92.0282 22.4259C91.7914 20.6707 92.1178 19.0229 93.1785 17.5761C94.1894 16.1831 95.5387 15.4329 97.2959 15.5125C97.7674 15.5164 98.2323 15.6229 98.6585 15.8246C99.0846 16.0264 99.4617 16.3185 99.7636 16.6806C99.7853 16.7059 99.8085 16.7299 99.8332 16.7523C99.8332 16.7523 99.8491 16.7523 99.877 16.7682C99.9049 16.7841 99.9088 16.7264 99.9228 16.7025C100.363 15.9065 101.087 15.5761 101.929 15.7811C102.314 15.8828 102.654 16.1124 102.893 16.4323C103.131 16.7523 103.253 17.1436 103.24 17.5423C103.24 18.7363 103.24 19.9304 103.24 21.1105C103.24 22.5254 103.24 23.9403 103.24 25.3552C103.255 25.7358 103.147 26.111 102.932 26.4254C102.717 26.7397 102.406 26.9764 102.046 27.1005C101.657 27.2373 101.231 27.226 100.849 27.069C100.467 26.9119 100.157 26.62 99.9765 26.2488L99.9009 26.1254ZM99.7178 21.4349C99.7384 20.9054 99.6102 20.3807 99.3477 19.9204C99.172 19.5912 98.9061 19.3189 98.5811 19.1356C98.256 18.9523 97.8854 18.8656 97.5128 18.8856C97.147 18.8797 96.7875 18.9817 96.4792 19.1788C96.171 19.3759 95.9276 19.6595 95.7795 19.9941C95.5432 20.4518 95.4226 20.9605 95.4281 21.4756C95.4337 21.9908 95.5653 22.4967 95.8113 22.9493C95.9731 23.2646 96.2162 23.5311 96.5155 23.721C96.8148 23.9109 97.1593 24.0175 97.5136 24.0297C97.8678 24.0419 98.2189 23.9592 98.5305 23.7902C98.8421 23.6213 99.1029 23.3722 99.286 23.0687C99.5909 22.5797 99.7427 22.0107 99.7218 21.4349H99.7178Z" fill="#213f5e"/>
<path d="M134.667 26.1254C134.642 26.1352 134.619 26.1486 134.598 26.1652C133.205 27.8309 130.685 27.6697 129.183 26.5632C128.519 26.0769 127.965 25.458 127.554 24.7457C127.142 24.0335 126.884 23.2434 126.795 22.4259C126.558 20.6707 126.886 19.0229 127.945 17.5761C128.958 16.1831 130.307 15.4329 132.062 15.5125C132.533 15.5156 132.997 15.6208 133.422 15.8207C133.848 16.0207 134.225 16.3107 134.528 16.6707C134.55 16.696 134.573 16.7199 134.598 16.7423C134.598 16.7423 134.612 16.7423 134.641 16.7582C134.671 16.7742 134.673 16.7164 134.687 16.6926C135.127 15.8965 135.851 15.5662 136.693 15.7712C137.079 15.8731 137.418 16.1028 137.656 16.4227C137.895 16.7426 138.017 17.1338 138.005 17.5324C138.005 18.7264 138.005 19.9204 138.005 21.1005C138.005 22.5154 138.005 23.9304 138.005 25.3453C138.019 25.7259 137.911 26.1011 137.696 26.4154C137.481 26.7297 137.171 26.9665 136.811 27.0906C136.421 27.2278 135.995 27.2167 135.613 27.0596C135.231 26.9025 134.921 26.6103 134.741 26.2388L134.667 26.1254ZM134.484 21.4368C134.508 20.8251 134.332 20.2223 133.983 19.7194C133.792 19.4442 133.534 19.2217 133.234 19.0726C132.934 18.9235 132.601 18.8526 132.266 18.8665C131.931 18.8804 131.605 18.9786 131.318 19.1521C131.032 19.3255 130.793 19.5686 130.625 19.8587C130.333 20.3439 130.18 20.9007 130.185 21.4674C130.189 22.034 130.351 22.5883 130.651 23.0687C130.823 23.3504 131.063 23.5848 131.348 23.7511C131.633 23.9173 131.955 24.01 132.285 24.0208C132.614 24.0317 132.942 23.9604 133.237 23.8132C133.532 23.6661 133.787 23.4479 133.977 23.1781C134.331 22.6683 134.509 22.057 134.484 21.4368Z" fill="#213f5e"/>
<path d="M162.986 26.1235C162.96 26.1341 162.936 26.1482 162.914 26.1653C161.521 27.8309 159.004 27.6697 157.499 26.5633C156.836 26.0774 156.281 25.4585 155.869 24.7462C155.458 24.0338 155.2 23.2436 155.111 22.426C154.874 20.6707 155.201 19.023 156.262 17.5742C157.272 16.1931 158.622 15.4329 160.379 15.5125C160.851 15.5162 161.316 15.6228 161.742 15.8249C162.168 16.027 162.545 16.3197 162.847 16.6827C162.877 16.7253 162.904 16.7699 162.928 16.816C162.974 16.7483 162.992 16.7264 163.006 16.7006C163.446 15.9046 164.17 15.5762 165.012 15.7812C165.397 15.8828 165.737 16.1124 165.975 16.4324C166.214 16.7523 166.336 17.1437 166.323 17.5424C166.323 18.7483 166.323 19.9563 166.323 21.1623C166.323 22.5553 166.323 23.9483 166.323 25.3553C166.339 25.7454 166.225 26.1297 165.999 26.4478C165.773 26.766 165.447 26.9998 165.073 27.1125C164.693 27.2358 164.282 27.2184 163.914 27.0635C163.545 26.9086 163.245 26.6266 163.067 26.2687C163.044 26.219 163.018 26.1772 162.986 26.1235ZM162.801 21.4429C162.822 20.8402 162.654 20.2459 162.321 19.7434C162.129 19.4622 161.868 19.2347 161.563 19.0825C161.258 18.9303 160.919 18.8584 160.579 18.8735C160.238 18.8887 159.907 18.9904 159.617 19.1691C159.327 19.3477 159.087 19.5974 158.92 19.8946C158.642 20.3738 158.499 20.9189 158.504 21.4728C158.509 22.0267 158.663 22.569 158.95 23.0429C159.119 23.3293 159.356 23.569 159.641 23.7401C159.926 23.9112 160.249 24.0082 160.581 24.0222C160.913 24.0363 161.244 23.9669 161.542 23.8205C161.84 23.6742 162.097 23.4554 162.289 23.1842C162.646 22.6755 162.827 22.0638 162.803 21.4429H162.801Z" fill="#213f5e"/>
<path d="M111.564 20.7921C112.384 21.8548 113.25 22.9812 114.112 24.0936C114.269 24.2926 114.414 24.5115 114.564 24.7225C114.743 24.9501 114.848 25.2272 114.865 25.5164C114.882 25.8057 114.81 26.0932 114.659 26.3404C114.51 26.5776 114.307 26.776 114.066 26.9193C113.825 27.0626 113.554 27.1466 113.274 27.1645C112.994 27.1824 112.715 27.1336 112.457 27.0222C112.2 26.9107 111.973 26.7398 111.795 26.5235C111.069 25.5842 110.353 24.6329 109.634 23.6857C109.2 23.1165 108.774 22.5414 108.343 21.9702C108.295 21.9085 108.243 21.8488 108.144 21.7414V22.2667C108.144 23.3075 108.144 24.3483 108.144 25.3871C108.143 25.8197 107.983 26.2368 107.694 26.5584C107.405 26.88 107.007 27.0832 106.577 27.1292C106.146 27.1751 105.715 27.0604 105.364 26.8072C105.013 26.5539 104.769 26.18 104.677 25.7573C104.652 25.6261 104.641 25.4927 104.645 25.3593C104.645 21.1231 104.645 16.887 104.645 12.6508C104.635 12.416 104.673 12.1817 104.755 11.9616C104.838 11.7416 104.964 11.5404 105.125 11.37C105.287 11.1996 105.482 11.0635 105.697 10.9697C105.913 10.8759 106.145 10.8264 106.38 10.8242C106.615 10.8219 106.848 10.8669 107.065 10.9565C107.282 11.0461 107.479 11.1784 107.645 11.3457C107.81 11.5129 107.939 11.7116 108.026 11.93C108.113 12.1484 108.155 12.3821 108.15 12.617C108.15 14.8061 108.15 16.9772 108.15 19.1583V19.5026C108.245 19.413 108.309 19.3573 108.366 19.3036C109.306 18.3384 110.243 17.3692 111.188 16.4061C111.484 16.0616 111.891 15.8314 112.339 15.7553C112.654 15.7037 112.977 15.748 113.267 15.8825C113.556 16.017 113.799 16.2355 113.963 16.5095C114.141 16.7554 114.234 17.0528 114.227 17.3563C114.221 17.6599 114.115 17.953 113.927 18.1911C113.584 18.6162 113.22 19.0234 112.836 19.411C112.424 19.8648 112.004 20.3165 111.564 20.7921Z" fill="#213f5e"/>
<path d="M118.665 22.5872C118.695 22.9464 118.858 23.2814 119.123 23.5265C119.575 23.9603 120.146 24.0897 120.743 24.1454C121.686 24.2329 122.556 23.9802 123.395 23.5862C123.577 23.5006 123.756 23.413 123.939 23.3354C124.516 23.0887 125.053 23.1364 125.503 23.5981C125.723 23.7997 125.876 24.063 125.944 24.3534C126.012 24.6438 125.991 24.9479 125.883 25.226C125.726 25.6258 125.448 25.9662 125.087 26.1991C124.343 26.7231 123.49 27.0703 122.591 27.214C121.385 27.4489 120.172 27.5265 118.981 27.1683C116.735 26.4916 115.423 24.9374 115.001 22.6608C114.814 21.7811 114.827 20.8705 115.041 19.9967C115.254 19.1229 115.662 18.3084 116.233 17.614C118.371 14.9454 122.546 14.7125 124.777 17.3334C125.743 18.4484 126.231 19.899 126.136 21.3712C126.098 22.0996 125.738 22.4777 125.003 22.5513C124.788 22.5736 124.571 22.5849 124.355 22.5852H118.665V22.5872ZM118.703 20.1712H122.621C122.669 19.3275 121.704 18.4697 120.713 18.4558C119.722 18.4419 118.675 19.3235 118.703 20.1712Z" fill="#213f5e"/>
<path d="M172.327 21.616C172.389 21.4866 172.434 21.401 172.47 21.3135C173.02 20.0199 173.551 18.7264 174.124 17.4388C174.309 17.013 174.555 16.6162 174.854 16.2607C175.362 15.6637 176.148 15.5622 176.86 15.9045C177.175 16.0638 177.43 16.3199 177.589 16.6352C177.747 16.9504 177.8 17.3081 177.74 17.6558C177.658 18.1132 177.525 18.5599 177.342 18.9871C176.148 21.7553 174.926 24.5135 173.714 27.2757C173.316 28.203 172.902 29.1324 172.48 30.0617C172.335 30.3877 172.163 30.7012 171.967 30.999C171.723 31.3451 171.365 31.5937 170.955 31.7008C170.546 31.8079 170.112 31.7666 169.73 31.5841C169.368 31.4158 169.08 31.1197 168.922 30.7524C168.765 30.3852 168.748 29.9727 168.876 29.5941C169.039 29.0708 169.236 28.5583 169.463 28.0597C169.746 27.405 170.06 26.7602 170.365 26.1155C170.4 26.0465 170.418 25.9701 170.418 25.8926C170.418 25.8151 170.4 25.7387 170.365 25.6697C169.375 23.4143 168.391 21.1516 167.414 18.8816C167.261 18.5316 167.135 18.1703 167.037 17.801C166.962 17.5383 166.953 17.2608 167.012 16.9938C167.071 16.7268 167.196 16.4788 167.375 16.2722C167.554 16.0657 167.782 15.9071 168.038 15.8109C168.294 15.7147 168.57 15.684 168.84 15.7214C169.196 15.7421 169.538 15.8685 169.821 16.0844C170.105 16.3003 170.318 16.5959 170.432 16.9334L172.184 21.2796C172.224 21.3831 172.267 21.4766 172.327 21.616Z" fill="#213f5e"/>
<path d="M86.3447 15.4527C85.7337 15.4527 85.1606 15.4527 84.5875 15.4527C84.3381 15.4526 84.0897 15.4233 83.8472 15.3652C83.0512 15.1542 82.6372 14.5433 82.673 13.6299C82.6737 13.2625 82.8059 12.9076 83.0458 12.6294C83.2857 12.3512 83.6173 12.1682 83.9805 12.1134C84.169 12.0793 84.3601 12.062 84.5517 12.0617C86.9729 12.0617 89.3948 12.0617 91.8173 12.0617C92.0331 12.0603 92.2483 12.085 92.4581 12.1353C93.284 12.3343 93.7198 12.999 93.6661 13.9264C93.6557 14.2973 93.5102 14.6516 93.257 14.9227C93.0038 15.1939 92.6603 15.3633 92.291 15.399C91.6641 15.4627 91.0273 15.4368 90.3964 15.4488C90.273 15.4488 90.1477 15.4488 89.9865 15.4488V15.7811C89.9865 18.8935 89.9865 22.006 89.9865 25.1184C89.9939 25.3266 89.9832 25.535 89.9546 25.7413C89.7974 26.6527 89.1009 27.194 88.1377 27.1682C87.085 27.1403 86.4322 26.5174 86.3606 25.4687C86.3507 25.3274 86.3507 25.1861 86.3507 25.0448C86.3507 21.9668 86.3507 18.8876 86.3507 15.807L86.3447 15.4527Z" fill="#213f5e"/>
<path d="M60.8955 22.3424C60.9256 22.7016 61.0888 23.0367 61.3533 23.2817C61.805 23.7155 62.3761 23.8449 62.9732 23.9006C63.9164 23.9882 64.7861 23.7354 65.6259 23.3394C65.807 23.2558 65.9861 23.1683 66.1692 23.0907C66.7463 22.8439 67.2836 22.8917 67.7334 23.3533C67.9531 23.555 68.1069 23.8182 68.1747 24.1086C68.2425 24.399 68.2212 24.7031 68.1135 24.9812C67.9567 25.381 67.6783 25.7215 67.3174 25.9543C66.5738 26.4784 65.7202 26.8255 64.8219 26.9693C63.6159 27.2041 62.402 27.2817 61.212 26.9235C58.9652 26.2449 57.6537 24.6926 57.2319 22.416C57.0444 21.5363 57.0579 20.6257 57.2711 19.7519C57.4844 18.8781 57.8921 18.0637 58.4637 17.3693C60.601 14.7006 64.7761 14.4678 67.001 17.0887C67.9676 18.2034 68.456 19.6541 68.3602 21.1265C68.3224 21.8548 67.9622 22.2329 67.2279 22.3066C67.0123 22.3288 66.7958 22.3401 66.5791 22.3404H60.8955V22.3424ZM60.9334 19.9245H64.8518C64.8995 19.0827 63.9344 18.225 62.9433 18.2111C61.9523 18.1971 60.8955 19.0767 60.9274 19.9245H60.9334Z" fill="#213f5e"/>
<path d="M73.8933 21.616C73.9549 21.4866 73.9987 21.4011 74.0365 21.3135C74.5838 20.02 75.1171 18.7264 75.6883 17.4389C75.8737 17.013 76.1197 16.6162 76.4186 16.2608C76.9261 15.6638 77.7142 15.5623 78.4246 15.9045C78.7398 16.0633 78.9955 16.3194 79.1539 16.6348C79.3123 16.9501 79.365 17.3081 79.3042 17.6558C79.2226 18.1133 79.0891 18.5599 78.9062 18.9871C77.7122 21.7553 76.4883 24.5135 75.2763 27.2757C74.8684 28.2031 74.4644 29.1324 74.0445 30.0618C73.8987 30.3878 73.7263 30.7013 73.5291 30.9991C73.2855 31.3452 72.9272 31.5938 72.5177 31.7009C72.1083 31.808 71.6741 31.7666 71.2923 31.5842C70.9298 31.4159 70.6424 31.1196 70.4852 30.7523C70.328 30.3849 70.312 29.9725 70.4405 29.5941C70.603 29.0708 70.7984 28.5584 71.0256 28.0598C71.3082 27.405 71.6226 26.7603 71.9271 26.1155C71.9628 26.0466 71.9815 25.9702 71.9815 25.8926C71.9815 25.815 71.9628 25.7386 71.9271 25.6697C70.9374 23.4143 69.9536 21.1516 68.9758 18.8817C68.8237 18.5316 68.6986 18.1703 68.6017 17.8011C68.5257 17.5383 68.5166 17.2606 68.5753 16.9934C68.6341 16.7262 68.7587 16.4779 68.9379 16.2712C69.1171 16.0645 69.3452 15.9059 69.6014 15.8099C69.8576 15.7139 70.1338 15.6835 70.4047 15.7215C70.7605 15.7421 71.1021 15.8685 71.3857 16.0844C71.6693 16.3003 71.8821 16.5959 71.9967 16.9334C72.5792 18.3808 73.1636 19.8342 73.75 21.2936C73.7878 21.3832 73.8316 21.4767 73.8933 21.616Z" fill="#213f5e"/>
</g>
<defs>
<clipPath id="clip0">
<rect width="177.765" height="40" fill="white"/>
</clipPath>
</defs>
</svg>
