<?xml version="1.0" encoding="utf-8"?>
<!-- Svg Vector Icons : http://www.onlinewebfonts.com/icon -->
<!DOCTYPE svg PUBLIC "-//W3C//DTD SVG 1.1//EN" "http://www.w3.org/Graphics/SVG/1.1/DTD/svg11.dtd">
<svg version="1.1" xmlns="http://www.w3.org/2000/svg" xmlns:xlink="http://www.w3.org/1999/xlink" x="0px" y="0px" viewBox="0 0 1000 1000" enable-background="new 0 0 1000 1000" xml:space="preserve">
<metadata> Svg Vector Icons : http://www.onlinewebfonts.com/icon </metadata>
<g><g><path d="M829.2,424L720.9,250.5c-12-19.2-33.1-30.9-55.7-30.9H75.7C39.4,219.6,10,249,10,285.3v369.2c0,36.3,29.4,65.7,65.7,65.7h17.2c16.6,35.4,52.4,60.2,94,60.2s77.4-24.8,94-60.2h438.1c16.6,35.4,52.4,60.2,94,60.2c41.6,0,77.4-24.8,94-60.2h17.2c36.3,0,65.7-29.4,65.7-65.7v-54.7C990,507.9,919.2,432,829.2,424z M187.1,719.4c-23.7,0-43-19.2-43-43c0-23.7,19.2-43,43-43c23.7,0,43,19.3,43,43C230.1,700.2,210.8,719.4,187.1,719.4z M580.3,469.9V351v-65.7h84.9l115.3,184.6H580.3z M813.1,719.4c-23.7,0-43-19.2-43-43c0-23.7,19.2-43,43-43s43,19.3,43,43C856.1,700.2,836.8,719.4,813.1,719.4z"/></g><g></g><g></g><g></g><g></g><g></g><g></g><g></g><g></g><g></g><g></g><g></g><g></g><g></g><g></g><g></g></g>
</svg>