<svg xmlns="http://www.w3.org/2000/svg" viewBox="0 0 638.73 100.31"><defs><style>.cls-1{fill:#fcfcfc;}</style></defs><title>Asset 6tradesprintwhite</title><g id="Layer_2" data-name="Layer 2"><g id="Layer_1-2" data-name="Layer 1"><path class="cls-1" d="M52.63,57.27h-23A16.84,16.84,0,0,0,46.49,74.11h2.57Z"/><path class="cls-1" d="M78.27,1.52H0V4.46a13.9,13.9,0,0,0,13.9,13.9H66.32L54.51,74.11H73.87L85.68,18.36h19.55l3.58-16.84Z"/><path class="cls-1" d="M58.54,29.39H14.83A16.84,16.84,0,0,0,31.67,46.24H55Z"/><path class="cls-1" d="M128.46,42.64c.2-.91.38-1.83.54-2.74a7.68,7.68,0,0,0,.1-2.45,2.89,2.89,0,0,0-.88-1.77,3.67,3.67,0,0,0-2.5-.68,7.15,7.15,0,0,0-3.28.68,7.41,7.41,0,0,0-2.31,1.87,10,10,0,0,0-1.57,2.64,16.8,16.8,0,0,0-.88,3l-6.57,30.88H94.25l11-51.47H121.6l-1.66,7.55h.68A16,16,0,0,1,127,23.92a18.29,18.29,0,0,1,8.38-1.86q4.41,0,6.61,1.66a7.74,7.74,0,0,1,2.9,4.32,16.85,16.85,0,0,1,.29,6.07q-.39,3.44-1.08,7l-.88,4H128Z"/><path class="cls-1" d="M177.77,66.46h-.59a10.75,10.75,0,0,1-3,4.27,14.68,14.68,0,0,1-4.16,2.5,18.85,18.85,0,0,1-4.76,1.17,39.14,39.14,0,0,1-4.65.3,41.31,41.31,0,0,1-7.75-.64,11,11,0,0,1-5.34-2.4,8.6,8.6,0,0,1-2.65-4.9,20.09,20.09,0,0,1,.45-8A25.48,25.48,0,0,1,148.17,51a15.34,15.34,0,0,1,4.61-5,17.7,17.7,0,0,1,6.37-2.65,39.23,39.23,0,0,1,8.23-.79c1.18,0,2.48,0,3.92.1a20.05,20.05,0,0,1,4.07.59A7.75,7.75,0,0,1,178.66,45a4.92,4.92,0,0,1,1.56,3.38H181l1.76-8.14a28.22,28.22,0,0,0,.54-3.23,4.34,4.34,0,0,0-.39-2.5,3.46,3.46,0,0,0-2-1.57,12.36,12.36,0,0,0-4.17-.54,11.4,11.4,0,0,0-5.24,1.08q-2.12,1.08-2.89,4.51H151.8a21,21,0,0,1,4-9.22,15.91,15.91,0,0,1,6.37-4.7,25.39,25.39,0,0,1,8-1.72q4.31-.24,8.82-.24a81.13,81.13,0,0,1,11,.63,14.34,14.34,0,0,1,7.06,2.7,8.88,8.88,0,0,1,3.08,6A32.82,32.82,0,0,1,199.24,42l-6.86,32.15H175.52Zm-12.4-12.69q-2.3.93-3.09,4.46a4.84,4.84,0,0,0,.1,3.23A3.46,3.46,0,0,0,164,63.13a6.24,6.24,0,0,0,2.25.59c.82.07,1.56.1,2.21.1a32.94,32.94,0,0,0,4.46-.25,9.1,9.1,0,0,0,3-.88,4.51,4.51,0,0,0,1.91-1.86,13,13,0,0,0,1.18-3.29A4.39,4.39,0,0,0,178.9,55a2.73,2.73,0,0,0-1.57-1.42,10.39,10.39,0,0,0-2.79-.59c-1.11-.09-2.35-.14-3.73-.14A14.51,14.51,0,0,0,165.37,53.77Z"/><path class="cls-1" d="M252.47,74.11H235.61l2.25-8.92h-.78A17.9,17.9,0,0,1,234,69.94a14.1,14.1,0,0,1-3.82,2.9,15.24,15.24,0,0,1-4.56,1.47,33.08,33.08,0,0,1-5.2.39q-9.3,0-13.52-4.36t-2-14.56L207.38,44a47,47,0,0,1,3.23-10,21.73,21.73,0,0,1,4.85-6.82,17.89,17.89,0,0,1,6.87-3.87,31.68,31.68,0,0,1,9.26-1.22,30.62,30.62,0,0,1,4.41.29,11.41,11.41,0,0,1,3.73,1.18A8.42,8.42,0,0,1,242.57,26a9.86,9.86,0,0,1,1.67,4H245L251.2.59h16.86ZM222.08,55.83a7.81,7.81,0,0,0,.49,4,3,3,0,0,0,2.31,1.61,24.22,24.22,0,0,0,4.26.3,19.46,19.46,0,0,0,4.46-.44,6.57,6.57,0,0,0,3.19-1.87,11.73,11.73,0,0,0,2.35-4,55.59,55.59,0,0,0,2-7c.52-2.49.9-4.59,1.13-6.33a10,10,0,0,0-.15-4.16,3.52,3.52,0,0,0-2.21-2.26,14.4,14.4,0,0,0-5-.68,15.46,15.46,0,0,0-5.05.68,6.36,6.36,0,0,0-3,2.21A12.67,12.67,0,0,0,224.88,42q-.74,2.6-1.52,6.42A52,52,0,0,0,222.08,55.83Z"/><path class="cls-1" d="M314.62,57a24.09,24.09,0,0,1-3.82,9.32,18.38,18.38,0,0,1-6.28,5.39,25.84,25.84,0,0,1-8.43,2.45,83.62,83.62,0,0,1-10.29.59,42.61,42.61,0,0,1-12.21-1.42,12.34,12.34,0,0,1-6.71-4.51,14.15,14.15,0,0,1-2.21-8.09,57.51,57.51,0,0,1,1.52-12.25,70.41,70.41,0,0,1,3.68-12.5,22.18,22.18,0,0,1,5.54-8.14A20,20,0,0,1,284,23.38a53.64,53.64,0,0,1,13-1.32,48.89,48.89,0,0,1,11.81,1.17,11.93,11.93,0,0,1,6.81,4.17,13.85,13.85,0,0,1,2.4,8.09,56.72,56.72,0,0,1-1.52,12.94l-.58,2.84H282.47a37.22,37.22,0,0,0-.94,5.64,7.35,7.35,0,0,0,.5,3.57,3.56,3.56,0,0,0,2.1,1.92,12.43,12.43,0,0,0,4.12.54,18.07,18.07,0,0,0,6.47-1c1.7-.65,2.81-2.31,3.33-5ZM301,42a14.5,14.5,0,0,0,.4-4.46,3.91,3.91,0,0,0-1.08-2.45,4.21,4.21,0,0,0-2.45-1,30.71,30.71,0,0,0-3.73-.2,18.77,18.77,0,0,0-3.82.34,6.18,6.18,0,0,0-4.56,3.68A21.09,21.09,0,0,0,284.43,42Z"/><path class="cls-1" d="M367,29.41A105.32,105.32,0,0,1,380.08,31a16.89,16.89,0,0,1,7.65,3.23,8.68,8.68,0,0,1,2.94,6.13,35.11,35.11,0,0,1-1,10.19q-.58,3-1.37,6a26.76,26.76,0,0,1-2.16,5.64,19,19,0,0,1-3.77,5,20.71,20.71,0,0,1-6.28,4,41.25,41.25,0,0,1-9.6,2.6,87.54,87.54,0,0,1-13.77.93q-4.71,0-8.78-.15a45.91,45.91,0,0,1-7.4-.83,17,17,0,0,1-5.73-2.21,10,10,0,0,1-3.73-4.26,17.29,17.29,0,0,1-1.47-6.86,43.52,43.52,0,0,1,1.13-10.2h18.82a15,15,0,0,0-.39,4.51,3.43,3.43,0,0,0,1.47,2.55,7.75,7.75,0,0,0,3.58,1.13,59.24,59.24,0,0,0,5.93.24c2.28,0,4.23-.06,5.83-.19a12.74,12.74,0,0,0,4-.89,5.47,5.47,0,0,0,2.45-2,10.52,10.52,0,0,0,1.37-3.67,19,19,0,0,0,.49-3.63,2.28,2.28,0,0,0-.93-2,6.5,6.5,0,0,0-2.94-.83c-1.34-.13-3.15-.26-5.44-.39l-4.22-.3q-6.66-.5-11.91-1.08A19.87,19.87,0,0,1,336.31,41a9.92,9.92,0,0,1-4.26-6.33q-1-4.26.64-12.2t4.8-12.4a20.59,20.59,0,0,1,7.65-6.72A28.9,28.9,0,0,1,355.48.54Q361.32,0,368.57,0c4,0,7.76.12,11.32.34a22,22,0,0,1,9,2.31,10.7,10.7,0,0,1,5.14,6.12q1.47,4.17-.1,11.82l-.68,3H374.45a13.1,13.1,0,0,0,.34-4.37A3.09,3.09,0,0,0,373.37,17a6.73,6.73,0,0,0-3.24-.84c-1.37-.06-3-.09-5-.09a40.91,40.91,0,0,0-6.38.39,10.54,10.54,0,0,0-3.67,1.18,4.66,4.66,0,0,0-1.91,2,10.25,10.25,0,0,0-.89,2.74,8.3,8.3,0,0,0-.19,3.48,2.86,2.86,0,0,0,1.17,1.81,6,6,0,0,0,2.31.84,28,28,0,0,0,3.38.34Z"/><path class="cls-1" d="M404.54,22.64H421.4l-2.15,8.14H420q2.55-5.19,6.81-7a25.32,25.32,0,0,1,9.76-1.76q9.3,0,13.48,4.36t2,14.56l-2.55,11.76a49.64,49.64,0,0,1-3.19,10,20.85,20.85,0,0,1-4.8,6.81,17.67,17.67,0,0,1-6.86,3.87,31.45,31.45,0,0,1-9.27,1.23,30.57,30.57,0,0,1-4.41-.3,10.52,10.52,0,0,1-3.72-1.22,8.77,8.77,0,0,1-2.85-2.55,9.59,9.59,0,0,1-1.57-4.26h-.78l-7.43,33.94H387.8Zm18.19,12.94a6.51,6.51,0,0,0-3,2.06,12,12,0,0,0-2.06,4.07q-.84,2.59-1.72,6.72-.69,3.23-1,5.73a10,10,0,0,0,.15,4.17,4.27,4.27,0,0,0,2,2.55,9.13,9.13,0,0,0,4.46.88,20.12,20.12,0,0,0,4.51-.44,6.52,6.52,0,0,0,3.23-1.87,12.1,12.1,0,0,0,2.41-4,50,50,0,0,0,2-7c.52-2.49.89-4.59,1.12-6.33a8.79,8.79,0,0,0-.24-4.16,3.83,3.83,0,0,0-2.31-2.26,14.4,14.4,0,0,0-5-.68A14.63,14.63,0,0,0,422.73,35.58Z"/><path class="cls-1" d="M488.26,42.64c.19-.91.37-1.83.54-2.74a8,8,0,0,0,.09-2.45,2.84,2.84,0,0,0-.88-1.77,3.67,3.67,0,0,0-2.5-.68,7.18,7.18,0,0,0-3.28.68,7.38,7.38,0,0,0-2.3,1.87,9.47,9.47,0,0,0-1.57,2.64,16.06,16.06,0,0,0-.89,3l-6.56,30.88H454.05l11-51.47H481.4l-1.67,7.55h.69a15.87,15.87,0,0,1,6.32-6.27,18.29,18.29,0,0,1,8.38-1.86q4.41,0,6.62,1.66A7.72,7.72,0,0,1,504.63,28a16.85,16.85,0,0,1,.29,6.07q-.39,3.44-1.08,7l-.88,4H487.77Z"/><path class="cls-1" d="M518.94,74.11H502.08l11-51.47h16.86Zm12.84-60.58H514.92L517.67.59h16.86Z"/><path class="cls-1" d="M556.48,22.64l-2.06,9.61h.69a22.57,22.57,0,0,1,3.38-5,15.57,15.57,0,0,1,4-3.13,14.94,14.94,0,0,1,4.71-1.62,31.64,31.64,0,0,1,5.49-.44q8.63,0,11.71,4.06t1.33,12.41l-7.55,35.58H561.29l6.76-31.66q.69-3.73-.29-5.59T562.66,35a12.67,12.67,0,0,0-4.76.78A7.85,7.85,0,0,0,554.77,38a12.45,12.45,0,0,0-2,3.43,25.11,25.11,0,0,0-1.28,4.31l-6,28.33H528.64l11-51.47Z"/><path class="cls-1" d="M636.08,35H616.57l-4.9,23a5.1,5.1,0,0,0,.05,3.29c.36.68,1.32,1,2.89,1a5.51,5.51,0,0,0,2.65-.54,4.26,4.26,0,0,0,1.57-1.47,7.39,7.39,0,0,0,.88-2.11c.2-.78.42-1.63.69-2.55l.68-2.74h13.43l-1,4.6a32.4,32.4,0,0,1-2.84,8.63,15,15,0,0,1-4.41,5.24,15.44,15.44,0,0,1-6.42,2.6,50,50,0,0,1-8.87.69,68.84,68.84,0,0,1-7.55-.39,13.78,13.78,0,0,1-5.88-1.87,8,8,0,0,1-3.34-4.31q-1-2.84.1-7.74L599.71,35h-6.27l2.65-12.36h6.27l2.25-10.88h16.87l-2.26,10.88h19.51Z"/></g></g></svg>