<svg xmlns="http://www.w3.org/2000/svg" viewBox="0 0 183.86 214.89"><defs><style>.cls-1{fill:#cad5ca;}.cls-2{fill:#213f5e;}.cls-3{fill:#fff;}</style></defs><title>Asset 11100</title><g id="Layer_2" data-name="Layer 2"><g id="Layer_1-2" data-name="Layer 1"><path class="cls-1" d="M183.83,208.51,164.94,10.12c-.45-4.7-7-7.09-11.53-4.19l-1,.67a8.16,8.16,0,0,1-10.17-1.16L140.7,3.73a8.11,8.11,0,0,0-9-1.76L116.42,8.5a8.34,8.34,0,0,1-8-.84L100,1.49A8.34,8.34,0,0,0,92.29.54L70.83,8.65a8.28,8.28,0,0,1-8-1.19l-6.16-5.1a8.29,8.29,0,0,0-9-.74l-15.95,8.8a8.27,8.27,0,0,1-9.21-.9C18.17,5.67,10.39,8,10.11,13.28L1,185.14c-.16,3,2.39,5.59,5.94,6.09l168.57,23.58C180.11,215.45,184.2,212.35,183.83,208.51Z"/><path class="cls-2" d="M171,198.93,153.34,13.36c-.42-4.4-6.59-6.64-10.78-3.92l-1,.62A7.62,7.62,0,0,1,132.09,9l-1.42-1.6a7.6,7.6,0,0,0-8.46-1.65L108,11.84a7.8,7.8,0,0,1-7.51-.78L92.61,5.29a7.79,7.79,0,0,0-7.22-.9L65.32,12a7.74,7.74,0,0,1-7.5-1.12L52.05,6.1a7.76,7.76,0,0,0-8.43-.69L28.7,13.64a7.71,7.71,0,0,1-8.6-.84c-4-3.6-11.32-1.39-11.58,3.52L0,177.06c-.15,2.79,2.23,5.23,5.56,5.7l157.67,22.05C167.53,205.41,171.36,202.51,171,198.93ZM95.4,72.55A10.54,10.54,0,1,1,103.63,85,10.54,10.54,0,0,1,95.4,72.55Zm-50,0A10.54,10.54,0,1,1,53.67,85,10.54,10.54,0,0,1,45.44,72.55ZM89.11,153c-23.62,1.24-46.07-10-53-27.19h98.46C128.53,141,110.2,151.87,89.11,153Z"/><circle class="cls-3" cx="55.77" cy="74.39" r="10.5"/><circle class="cls-3" cx="105.77" cy="74.39" r="10.5"/><path class="cls-3" d="M85.27,152.89c27.06,0,49-12.09,49-27h-98C36.27,140.8,58.2,152.89,85.27,152.89Z"/></g></g></svg>