<svg width="16" height="16" viewBox="0 0 16 16" fill="none" xmlns="http://www.w3.org/2000/svg">
<path d="M14 2H12.5V0.5C12.5 0.224 12.276 0 12 0H3C2.173 0 1.5 0.673 1.5 1.5V14C1.5 15.103 2.397 16 3.5 16H14C14.276 16 14.5 15.776 14.5 15.5V2.5C14.5 2.224 14.276 2 14 2ZM11 13H5C4.724 13 4.5 12.776 4.5 12.5C4.5 12.224 4.724 12 5 12H11C11.276 12 11.5 12.224 11.5 12.5C11.5 12.776 11.276 13 11 13ZM4.5 6C4.5 4.878 5.159 4 6 4C6.841 4 7.5 4.878 7.5 6C7.5 6.885 7.087 7.612 6.5 7.881V10.5C6.5 10.776 6.276 11 6 11C5.724 11 5.5 10.776 5.5 10.5V7.881C4.913 7.612 4.5 6.885 4.5 6ZM11.5 8.5C11.5 8.776 11.276 9 11 9H9.5V10.5C9.5 10.776 9.276 11 9 11C8.724 11 8.5 10.776 8.5 10.5V4.5C8.5 4.224 8.724 4 9 4C10.379 4 11.5 5.122 11.5 6.5V8.5ZM11.5 2H3C2.724 2 2.5 1.776 2.5 1.5C2.5 1.224 2.724 1 3 1H11.5V2Z" fill="#F18781"/>
</svg>
