<svg width="48" height="57" viewBox="0 0 48 57" fill="none" xmlns="http://www.w3.org/2000/svg">
<path d="M45.5067 2.39058C44.581 1.99845 43.4902 2.15104 42.733 2.77834L38.7377 6.03065C38.629 6.11958 38.465 6.11905 38.3569 6.02959L32.9208 1.5596C31.9376 0.749665 30.4492 0.749665 29.466 1.5596L24.0348 6.02549C23.9255 6.11521 23.7604 6.11521 23.6512 6.02549L18.2194 1.5596C17.2362 0.749797 15.7478 0.749797 14.7646 1.5596L9.32775 6.02959C9.21892 6.11905 9.05453 6.11945 8.94513 6.03051L4.94621 2.77834C3.8853 1.91097 2.2604 1.99845 1.31696 2.97381C0.893889 3.4112 0.662418 3.97736 0.667312 4.56258V53.3299C0.657812 54.6371 1.80279 55.704 3.22472 55.7127C3.8617 55.7167 4.47751 55.5033 4.95341 55.1141L8.94873 51.8618C9.05741 51.7729 9.22137 51.7734 9.32948 51.8629L14.7656 56.3328C15.7488 57.1428 17.2372 57.1428 18.2204 56.3328L23.6522 51.867C23.7614 51.7772 23.9265 51.7772 24.0358 51.867L29.4676 56.3327C30.4509 57.1423 31.9392 57.1423 32.9224 56.3327L38.3595 51.8627C38.4683 51.7733 38.6327 51.7729 38.7421 51.8618L42.741 55.114C43.8024 55.981 45.4271 55.8928 46.3701 54.9171C46.7925 54.4801 47.0237 53.9146 47.0191 53.3299V4.56258C47.0326 3.62573 46.4378 2.77146 45.5067 2.39058ZM10.1978 19.947H24.5331C25.1691 19.947 25.6847 20.421 25.6847 21.0057C25.6847 21.5904 25.1691 22.0644 24.5331 22.0644H10.1978C9.56181 22.0644 9.04618 21.5904 9.04618 21.0057C9.04618 20.421 9.56181 19.947 10.1978 19.947ZM37.4886 37.9455H10.1978C9.56181 37.9455 9.04618 37.4714 9.04618 36.8868C9.04618 36.3021 9.56181 35.828 10.1978 35.828H37.4886C38.1246 35.828 38.6402 36.3021 38.6402 36.8868C38.6402 37.4714 38.1246 37.9455 37.4886 37.9455ZM37.4886 30.005H10.1978C9.56181 30.005 9.04618 29.5309 9.04618 28.9462C9.04618 28.3615 9.56181 27.8875 10.1978 27.8875H37.4886C38.1246 27.8875 38.6402 28.3615 38.6402 28.9462C38.6402 29.5309 38.1246 30.005 37.4886 30.005Z" fill="#3F4548"/>
</svg>
