<svg width="16" height="16" viewBox="0 0 16 16" fill="none" xmlns="http://www.w3.org/2000/svg">
<path fill-rule="evenodd" clip-rule="evenodd" d="M1.6 14.4V11.2H4.3056L4.884 12.3576C5.02 12.6288 5.2968 12.8 5.6 12.8H10.4C10.7032 12.8 10.98 12.6288 11.116 12.3576L11.6944 11.2H14.4V14.4H1.6ZM15.2 0.8C15.4122 0.8 15.6157 0.884285 15.7657 1.03431C15.9157 1.18434 16 1.38783 16 1.6V15.2C16 15.4122 15.9157 15.6157 15.7657 15.7657C15.6157 15.9157 15.4122 16 15.2 16H0.8C0.587827 16 0.384344 15.9157 0.234315 15.7657C0.0842855 15.6157 0 15.4122 0 15.2V1.6C0 1.38783 0.0842855 1.18434 0.234315 1.03431C0.384344 0.884285 0.587827 0.8 0.8 0.8H4C4.21217 0.8 4.41566 0.884285 4.56569 1.03431C4.71571 1.18434 4.8 1.38783 4.8 1.6C4.8 1.81217 4.71571 2.01566 4.56569 2.16569C4.41566 2.31571 4.21217 2.4 4 2.4H1.6V9.6H4.8C5.1032 9.6 5.38 9.7712 5.516 10.0424L6.0944 11.2H9.9056L10.484 10.0424C10.62 9.7712 10.8968 9.6 11.2 9.6H14.4V2.4H12C11.7878 2.4 11.5843 2.31571 11.4343 2.16569C11.2843 2.01566 11.2 1.81217 11.2 1.6C11.2 1.38783 11.2843 1.18434 11.4343 1.03431C11.5843 0.884285 11.7878 0.8 12 0.8H15.2ZM5.0344 5.3656C4.96012 5.29132 4.90121 5.20315 4.86101 5.1061C4.82081 5.00905 4.80012 4.90504 4.80012 4.8C4.80012 4.69496 4.82081 4.59095 4.86101 4.4939C4.90121 4.39685 4.96012 4.30868 5.0344 4.2344C5.10868 4.16012 5.19685 4.10121 5.2939 4.06101C5.39095 4.02081 5.49496 4.00012 5.6 4.00012C5.70504 4.00012 5.80905 4.02081 5.9061 4.06101C6.00315 4.10121 6.09132 4.16012 6.1656 4.2344L7.2 5.2688V0.8C7.2 0.587827 7.28429 0.384344 7.43431 0.234315C7.58434 0.0842855 7.78783 0 8 0C8.21217 0 8.41566 0.0842855 8.56569 0.234315C8.71571 0.384344 8.8 0.587827 8.8 0.8V5.2688L9.8344 4.2344C9.90868 4.16012 9.99685 4.10121 10.0939 4.06101C10.1909 4.02081 10.295 4.00012 10.4 4.00012C10.505 4.00012 10.6091 4.02081 10.7061 4.06101C10.8031 4.10121 10.8913 4.16012 10.9656 4.2344C11.0399 4.30868 11.0988 4.39685 11.139 4.4939C11.1792 4.59095 11.1999 4.69496 11.1999 4.8C11.1999 4.90504 11.1792 5.00905 11.139 5.1061C11.0988 5.20315 11.0399 5.29132 10.9656 5.3656L8.5656 7.7656C8.49148 7.84015 8.40335 7.89931 8.30628 7.93968C8.20922 7.98005 8.10513 8.00083 8 8.00083C7.89487 8.00083 7.79078 7.98005 7.69372 7.93968C7.59665 7.89931 7.50852 7.84015 7.4344 7.7656L5.0344 5.3656Z" fill="white"/>
</svg>
