<svg width="63" height="30" viewBox="0 0 63 30" fill="none" xmlns="http://www.w3.org/2000/svg">
<path fill-rule="evenodd" clip-rule="evenodd" d="M44.923 0.298577C50.2652 1.31846 52.3088 3.88846 54.8708 7.42574H44.923V0.298577ZM13.7024 7.72277C14.7484 7.72277 15.5076 8.13815 15.5076 9.10891C15.5076 9.92768 14.7023 10.5917 13.7076 10.5941H2.80166C1.80457 10.5941 0.99646 11.2593 0.99646 12.0792C0.99646 12.8995 1.80457 13.5644 2.80166 13.5644H19.0484C20.0549 13.5644 20.8607 14.2288 20.8607 15.0495C20.8607 15.8698 20.0526 16.5347 19.0555 16.5347H2.80166C1.80457 16.5347 0.99646 17.1995 0.99646 18.0198C0.99646 18.8401 1.80457 19.505 2.80166 19.505H6.7731V23.9604C6.7731 24.7807 7.5812 25.4455 8.57829 25.4455H12.207C12.8539 28.067 15.6693 30 18.9883 30C22.3072 30 25.1227 28.067 25.7695 25.4455H44.0989C44.7457 28.067 47.5612 30 50.8801 30C54.199 30 57.0145 28.067 57.6614 25.4455H60.8087C61.8058 25.4455 62.6139 24.7807 62.6139 23.9604V15.0495C62.6139 10.6919 57.0272 10.4026 57.022 10.396H43.1178C42.1207 10.396 41.3126 9.7312 41.3126 8.91089V0H8.57829C7.5812 0 6.7731 0.664836 6.7731 1.48515V4.75248H4.60686C3.60977 4.75248 2.80166 5.41731 2.80166 6.23762C2.80166 7.05794 3.60977 7.72277 4.60686 7.72277H13.7024ZM53.2203 22.3817C54.5126 23.4448 54.5126 25.1694 53.2203 26.2326C51.1415 27.9428 47.5706 26.7261 47.5706 24.3069C47.5706 21.8881 51.1415 20.6714 53.2203 22.3817ZM21.3284 22.3817C22.6208 23.4448 22.6208 25.1694 21.3284 26.2326C19.2497 27.9428 15.6787 26.7261 15.6787 24.3069C15.6787 21.8881 19.2497 20.6714 21.3284 22.3817Z" fill="#3F4548"/>
</svg>
