<svg viewBox="0 0 118.79 32" xmlns="http://www.w3.org/2000/svg"><g transform="translate(-11.11 -7)"><path d="m38.25 37.93-2.8-29.31a1.1 1.1 0 0 0 -1.7-.62l-.15.1a1.2 1.2 0 0 1 -1.5-.17l-.23-.25a1.18 1.18 0 0 0 -1.33-.26l-2.25 1a1.23 1.23 0 0 1 -1.19-.12l-1.24-.91a1.24 1.24 0 0 0 -1.14-.15l-3.17 1.16a1.21 1.21 0 0 1 -1.18-.17l-.91-.76a1.25 1.25 0 0 0 -1.34-.11l-2.35 1.3a1.21 1.21 0 0 1 -1.36-.13c-.64-.57-1.79-.22-1.83.56l-1.35 25.39a.94.94 0 0 0 .88.9l24.89 3.48a1 1 0 0 0 1.25-.93z" fill="none" stroke="#6b6b6b" stroke-miterlimit="10" stroke-width=".25"/><g fill="#292d2d"><path d="m36.5 37.11-2.61-27.42a1 1 0 0 0 -1.59-.58l-.15.09a1.12 1.12 0 0 1 -1.4-.2l-.21-.23a1.13 1.13 0 0 0 -1.25-.25l-2.11.9a1.15 1.15 0 0 1 -1.11-.11l-1.15-.81a1.16 1.16 0 0 0 -1.07-.14l-3 1.13a1.14 1.14 0 0 1 -1.1-.17l-.86-.7a1.14 1.14 0 0 0 -1.24-.11l-2.18 1.22a1.15 1.15 0 0 1 -1.27-.12c-.59-.54-1.67-.21-1.71.52l-1.26 23.75a.87.87 0 0 0 .83.84l23.29 3.28a.93.93 0 0 0 1.15-.89zm-11.17-18.68a1.56 1.56 0 1 1 1.21 1.84 1.55 1.55 0 0 1 -1.21-1.84zm-7.38 0a1.56 1.56 0 1 1 1.21 1.84 1.55 1.55 0 0 1 -1.16-1.84zm6.45 11.89c-3.49.18-6.81-1.49-7.83-4h14.54c-.89 2.23-3.6 3.83-6.71 4z"/><path d="m42.82 23.57a.19.19 0 0 0 0-.07 1.2 1.2 0 0 1 1.82-.74 1 1 0 0 1 .51.91v2.4.2h3.94v-2.37a2 2 0 0 1 0-.42 1.2 1.2 0 0 1 2.34.42q0 3.6 0 7.22a2.38 2.38 0 0 1 0 .46 1.09 1.09 0 0 1 -1.16.84 1.07 1.07 0 0 1 -1.15-1.11c0-.87 0-1.74 0-2.61v-.21h-3.94v2.65a2.73 2.73 0 0 1 -.06.5 1.19 1.19 0 0 1 -2.28-.13.19.19 0 0 0 0-.07z"/><path d="m111.93 29.12c.19-.64.38-1.24.56-1.84s.3-1 .46-1.51a1 1 0 0 1 1.05-.77 1.06 1.06 0 0 1 1.06.82 1.49 1.49 0 0 1 -.08.81l-1.08 3-.6 1.63a2.62 2.62 0 0 1 -.22.48 1.08 1.08 0 0 1 -.94.61 2.94 2.94 0 0 1 -.42 0 1 1 0 0 1 -.84-.52 5 5 0 0 1 -.32-.75c-.23-.68-.45-1.36-.68-2.05 0 0 0-.09-.06-.18a.93.93 0 0 0 -.07.19c-.24.71-.46 1.43-.7 2.14a4 4 0 0 1 -.26.6 1 1 0 0 1 -.88.57 1.32 1.32 0 0 1 -1.54-1q-.86-2.32-1.69-4.67a1.63 1.63 0 0 1 -.11-.9 1.07 1.07 0 0 1 1.21-.84 1 1 0 0 1 .94.76c.31 1 .62 2.08.94 3.11a1.36 1.36 0 0 0 .06.2l.07-.18.93-3a1.21 1.21 0 0 1 .76-.87 1 1 0 0 1 1.18.4 3.42 3.42 0 0 1 .32.7c.29.92.57 1.85.86 2.78.04.16.06.16.09.28z"/><path d="m79.64 31.75a2.6 2.6 0 0 1 -3.54.25 3.82 3.82 0 0 1 -1.55-2.67 4.17 4.17 0 0 1 .75-3.13 3 3 0 0 1 2.7-1.31 2.11 2.11 0 0 1 1.6.76 1.11 1.11 0 0 1 1.3-.6 1.14 1.14 0 0 1 .84 1.14v2.3 2.74a1.15 1.15 0 0 1 -.74 1.14 1.09 1.09 0 0 1 -1.34-.55.43.43 0 0 1 -.02-.07zm-.12-3a1.9 1.9 0 0 0 -.24-1 1.28 1.28 0 0 0 -1.19-.67 1.22 1.22 0 0 0 -1.11.72 2 2 0 0 0 0 1.91 1.28 1.28 0 0 0 2.24.07 1.88 1.88 0 0 0 .3-1.06z"/><path d="m102.07 31.75a2.62 2.62 0 0 1 -3.5.25 3.81 3.81 0 0 1 -1.57-2.65 4.21 4.21 0 0 1 .74-3.13 3 3 0 0 1 2.66-1.33 2.11 2.11 0 0 1 1.6.76 1.11 1.11 0 0 1 1.29-.6 1.14 1.14 0 0 1 .85 1.14v5a1.15 1.15 0 0 1 -.78 1.13 1.08 1.08 0 0 1 -1.33-.55zm-.11-3a1.83 1.83 0 0 0 -.33-1.11 1.29 1.29 0 0 0 -2.16.09 2 2 0 0 0 0 2.08 1.29 1.29 0 0 0 2.15.07 1.89 1.89 0 0 0 .38-1.16z"/><path d="m120.35 31.75a2.62 2.62 0 0 1 -3.5.25 3.81 3.81 0 0 1 -1.54-2.67 4.21 4.21 0 0 1 .74-3.13 3 3 0 0 1 2.66-1.33 2.08 2.08 0 0 1 1.59.76l.06.08.05-.07a1.11 1.11 0 0 1 1.29-.6 1.14 1.14 0 0 1 .85 1.14v5a1.13 1.13 0 0 1 -.81 1.14 1.08 1.08 0 0 1 -1.29-.54zm-.11-3a1.9 1.9 0 0 0 -.31-1.1 1.29 1.29 0 0 0 -2.2.1 2 2 0 0 0 0 2 1.29 1.29 0 0 0 2.16.09 1.88 1.88 0 0 0 .35-1.11z"/><path d="m87.16 28.31 1.65 2.13.29.4a.94.94 0 0 1 .06 1.05 1.15 1.15 0 0 1 -1.85.12c-.47-.61-.93-1.23-1.39-1.84l-.84-1.1-.08-.15v2.35a1.13 1.13 0 0 1 -2.24.24 1.1 1.1 0 0 1 0-.26c0-2.73 0-5.46 0-8.2a1.13 1.13 0 1 1 2.24-.05v4.44l.14-.13 1.82-1.87a1.24 1.24 0 0 1 .74-.42 1 1 0 0 1 1 .48.9.9 0 0 1 0 1.09 10.55 10.55 0 0 1 -.71.79c-.27.33-.54.62-.83.93z"/><path d="m91.75 29.46a.89.89 0 0 0 .29.61 1.67 1.67 0 0 0 1 .4 3.26 3.26 0 0 0 1.71-.36l.35-.16a.85.85 0 0 1 1 .17.94.94 0 0 1 .24 1.05 1.35 1.35 0 0 1 -.5.63 4 4 0 0 1 -1.62.65 4.83 4.83 0 0 1 -2.33 0 3.52 3.52 0 0 1 -2.57-2.91 3.89 3.89 0 0 1 .8-3.26 3.61 3.61 0 0 1 5.51-.18 3.65 3.65 0 0 1 .87 2.61.72.72 0 0 1 -.73.76h-.42-3.6zm0-1.56h2.55a1.23 1.23 0 0 0 -1.23-1.1 1.29 1.29 0 0 0 -1.3 1.1z"/><path d="m126.38 28.84.1-.2c.35-.83.69-1.67 1.06-2.5a3.12 3.12 0 0 1 .47-.76 1.08 1.08 0 0 1 1.87.9 4.27 4.27 0 0 1 -.26.86l-2.34 5.35c-.27.6-.53 1.2-.8 1.79a4.47 4.47 0 0 1 -.33.61 1.16 1.16 0 0 1 -1.45.38 1.06 1.06 0 0 1 -.55-1.29 8.43 8.43 0 0 1 .38-1c.18-.42.38-.84.58-1.26a.31.31 0 0 0 0-.28q-1-2.19-1.91-4.38a4.45 4.45 0 0 1 -.24-.7 1.06 1.06 0 0 1 1.17-1.36 1.15 1.15 0 0 1 1 .78c.38.93.75 1.87 1.13 2.8z"/><path d="m70.88 24.86h-1.13a2.63 2.63 0 0 1 -.48-.06 1.09 1.09 0 0 1 .09-2.1 2.19 2.19 0 0 1 .36 0h4.69a1.51 1.51 0 0 1 .42 0 1 1 0 0 1 .78 1.16 1 1 0 0 1 -.89.94c-.4.05-.82 0-1.22 0h-.27v6.3a2.68 2.68 0 0 1 0 .4 1.07 1.07 0 0 1 -1.17.92 1.1 1.1 0 0 1 -1.15-1.1 2.44 2.44 0 0 1 0-.27v-6.19z"/><path d="m54.45 29.31a.94.94 0 0 0 .3.6 1.61 1.61 0 0 0 1 .4 3.22 3.22 0 0 0 1.76-.31l.35-.16a.85.85 0 0 1 1 .17 1 1 0 0 1 .25.99 1.31 1.31 0 0 1 -.51.63 3.91 3.91 0 0 1 -1.61.65 4.83 4.83 0 0 1 -2.33 0 3.49 3.49 0 0 1 -2.57-2.91 3.83 3.83 0 0 1 .79-3.25 3.57 3.57 0 0 1 6.39 2.42.71.71 0 0 1 -.73.76 3 3 0 0 1 -.42 0h-3.67zm0-1.56h2.55a1.24 1.24 0 0 0 -1.24-1.11 1.29 1.29 0 0 0 -1.28 1.11z"/><path d="m62.85 28.84.09-.2c.35-.83.7-1.67 1.06-2.5a3.15 3.15 0 0 1 .48-.76 1 1 0 0 1 1.29-.23 1.07 1.07 0 0 1 .57 1.13 3.71 3.71 0 0 1 -.26.86c-.77 1.79-1.56 3.57-2.34 5.35-.27.6-.53 1.2-.8 1.79a3.6 3.6 0 0 1 -.33.61 1.15 1.15 0 0 1 -1.44.38 1 1 0 0 1 -.55-1.27 6.93 6.93 0 0 1 .38-1c.19-.42.39-.84.59-1.26a.34.34 0 0 0 0-.28q-1-2.19-1.91-4.38a4.45 4.45 0 0 1 -.24-.7 1.06 1.06 0 0 1 1.15-1.38 1.15 1.15 0 0 1 1 .78c.38.93.76 1.87 1.13 2.8z"/><path d="m43.35 14.08a6.94 6.94 0 0 1 1.17-.08 1.94 1.94 0 0 1 1.32.39 1.29 1.29 0 0 1 .42 1 1.39 1.39 0 0 1 -.37 1 2 2 0 0 1 -1.44.52 1.85 1.85 0 0 1 -.49 0v1.89h-.61zm.65 2.28a2.27 2.27 0 0 0 .5.05c.74 0 1.19-.36 1.19-1s-.44-.93-1.12-.93a2.39 2.39 0 0 0 -.57 0z"/><path d="m49.94 17a1.65 1.65 0 0 1 -1.68 1.8 1.61 1.61 0 0 1 -1.63-1.74 1.65 1.65 0 0 1 1.68-1.8 1.6 1.6 0 0 1 1.63 1.74zm-2.68 0c0 .74.42 1.3 1 1.3s1-.55 1-1.32c0-.57-.28-1.3-1-1.3s-1 .73-1 1.38z"/><path d="m50.92 15.35.44 1.73c.1.38.19.73.26 1.08.07-.35.19-.71.3-1.08l.55-1.73h.53l.53 1.7c.12.41.22.76.3 1.11a9.08 9.08 0 0 1 .26-1.1l.48-1.71h.61l-1.09 3.39h-.56l-.53-1.61a10.24 10.24 0 0 1 -.3-1.12 10.69 10.69 0 0 1 -.3 1.12l-.55 1.61h-.56l-1-3.39z"/><path d="m56.1 17.16a1.08 1.08 0 0 0 1.16 1.18 2.2 2.2 0 0 0 .94-.18l.1.44a2.68 2.68 0 0 1 -1.12.21 1.57 1.57 0 0 1 -1.67-1.7 1.64 1.64 0 0 1 1.59-1.83 1.44 1.44 0 0 1 1.4 1.59v.29zm1.8-.44a.87.87 0 0 0 -.85-1 1 1 0 0 0 -.95 1z"/><path d="m59.26 16.41c0-.4 0-.74 0-1.06h.54v.67a1 1 0 0 1 .94-.74.44.44 0 0 1 .17 0v.58h-.21a.86.86 0 0 0 -.82.79 1.23 1.23 0 0 0 0 .29v1.8h-.61z"/><path d="m61.82 17.16a1.09 1.09 0 0 0 1.18 1.18 2.16 2.16 0 0 0 .94-.18l.11.44a2.74 2.74 0 0 1 -1.13.21 1.57 1.57 0 0 1 -1.67-1.7 1.65 1.65 0 0 1 1.59-1.83 1.43 1.43 0 0 1 1.4 1.59 1.85 1.85 0 0 1 0 .29zm1.81-.44a.88.88 0 0 0 -.86-1 1 1 0 0 0 -.94 1z"/><path d="m67.91 13.77v4.1.87h-.55v-.58a1.28 1.28 0 0 1 -1.16.66 1.54 1.54 0 0 1 -1.45-1.72 1.62 1.62 0 0 1 1.52-1.82 1.11 1.11 0 0 1 1 .52v-2zm-.61 3a1.07 1.07 0 0 0 0-.25.91.91 0 0 0 -.89-.72c-.64 0-1 .56-1 1.31s.34 1.25 1 1.25a.92.92 0 0 0 .9-.73 1.18 1.18 0 0 0 0-.27z"/><path d="m70.39 18.74c0-.23 0-.57 0-.87v-4.1h.61v2.13a1.26 1.26 0 0 1 1.16-.62c.84 0 1.43.7 1.43 1.73a1.61 1.61 0 0 1 -1.52 1.81 1.21 1.21 0 0 1 -1.07-.64v.56zm.61-1.35a.83.83 0 0 0 0 .22.93.93 0 0 0 .92.72c.64 0 1-.52 1-1.3s-.35-1.26-1-1.26a1 1 0 0 0 -.94.75 1.7 1.7 0 0 0 0 .26z"/><path d="m74.58 15.35.74 2c.08.22.16.49.22.69.06-.2.13-.46.22-.71l.67-2h.65l-.92 2.42a5.23 5.23 0 0 1 -1.16 2.14 1.66 1.66 0 0 1 -.75.4l-.16-.52a1.34 1.34 0 0 0 .54-.3 1.84 1.84 0 0 0 .52-.68.5.5 0 0 0 0-.15.45.45 0 0 0 0-.16l-1.25-3.13z"/></g></g></svg>