<?xml version="1.0" encoding="UTF-8" standalone="no" ?>
<!DOCTYPE svg PUBLIC "-//W3C//DTD SVG 1.1//EN" "http://www.w3.org/Graphics/SVG/1.1/DTD/svg11.dtd">
<svg xmlns="http://www.w3.org/2000/svg" xmlns:xlink="http://www.w3.org/1999/xlink" version="1.1" width="500" height="500" viewBox="0 0 500 500" xml:space="preserve">
<desc>Created with Fabric.js 4.6.0</desc>
<defs>
</defs>
<g transform="matrix(0.48 0 0 0.48 260.74 251.21)" id="zROTAbDqhxF-PHSfYes4M"  >
<path style="stroke: none; stroke-width: 1; stroke-dasharray: none; stroke-linecap: butt; stroke-dashoffset: 0; stroke-linejoin: miter; stroke-miterlimit: 4; fill: rgb(0,0,0); fill-rule: nonzero; opacity: 1;" vector-effect="non-scaling-stroke"  transform=" translate(0, 0)" d="M 235.39369 -47.53221 L 56.193690000000004 -226.73220999999998 C 44.43169 -238.49420999999998 28.752690000000005 -245.77121 11.955690000000004 -246.89220999999998 L -66.44230999999999 -251.93130999999997 C -83.80530999999999 -253.05240999999998 -100.60631 -247.45080999999996 -114.04431 -236.25130999999996 L -86.60331 -208.81030999999996 C -81.56420999999999 -211.61110999999997 -75.96230999999999 -213.29080999999996 -70.36531 -213.29080999999996 L -68.12701 -213.29080999999996 L 10.270989999999998 -208.25170999999997 C 17.552189999999996 -207.69311999999996 24.829989999999995 -204.32980999999998 30.430989999999998 -199.29080999999996 L 209.63099 -20.090809999999976 C 215.23259 -13.930609999999977 218.59189 -6.649809999999976 218.59189 1.7491900000000236 C 218.59189 10.147590000000024 215.23249 17.987190000000023 209.63099 23.589190000000023 L 83.07099 149.02919000000003 C 71.30899 160.79119000000003 50.59099 160.79119000000003 38.832989999999995 149.02919000000003 L -139.80701 -30.17080999999996 C -145.40860999999998 -35.77240999999996 -148.20541 -42.49080999999996 -148.76791 -50.33080999999996 L -153.80701 -128.72880999999995 C -154.3656 -134.88900999999996 -152.68590999999998 -141.60780999999994 -149.32650999999998 -146.65080999999995 L -190.20550999999998 -187.52980999999994 C -197.48671 -181.92820999999995 -203.64650999999998 -174.65080999999995 -208.12750999999997 -166.81080999999995 L -246.76850999999996 -97.92780999999995 C -255.16690999999997 -83.36880999999995 -257.40950999999995 -66.00580999999995 -254.04970999999998 -49.767809999999955 L -200.85071 197.75219000000004 C -194.13191 230.23219000000003 -165.01071 252.07219000000003 -133.65170999999998 252.07219000000003 C -129.17120999999997 252.07219000000003 -124.13220999999999 251.51360000000003 -119.09270999999998 250.39249000000004 L 54.50729000000001 212.87249000000003 C 71.86629000000002 208.95059000000003 86.98729 198.87249000000003 96.50729000000001 184.87249000000003 C 100.98779000000002 182.07169000000002 105.46819 178.71229000000002 109.38629000000002 174.79449000000002 L 235.38629000000003 50.47449000000003 C 248.26529000000002 37.595490000000034 255.54629000000003 20.236490000000032 255.54629000000003 1.7554900000000302 C 255.54629000000003 -16.72450999999997 248.82749000000004 -34.08450999999997 235.38629000000003 -47.52550999999997 z M -126.92631 213.98779 C -134.76611 215.66749 -143.16431 213.98779 -150.44631 209.50728999999998 C -157.16511 205.02678999999998 -162.20831 197.74528999999998 -163.88731 189.90528999999998 L -217.08631000000003 -57.61471000000003 C -218.76601000000002 -64.89591000000003 -217.64490000000004 -72.73571000000003 -213.72691000000003 -79.45471000000003 L -191.88691000000003 -119.21671000000003 L -187.40641000000002 -48.09571000000004 C -186.28531 -31.29471000000004 -179.00801 -15.615710000000043 -167.24641000000003 -3.85771000000004 L 11.953589999999963 175.34228999999993 C 14.191889999999963 177.58058999999994 16.992689999999964 179.82278999999994 19.793389999999963 182.06108999999992 z" stroke-linecap="round" />
</g>
<g transform="matrix(0.48 0 0 0.48 213.37 175.32)" id="ccJr5h4X6oXLwQKe22uNN"  >
<path style="stroke: none; stroke-width: 1; stroke-dasharray: none; stroke-linecap: butt; stroke-dashoffset: 0; stroke-linejoin: miter; stroke-miterlimit: 4; fill: rgb(0,0,0); fill-rule: nonzero; opacity: 1;" vector-effect="non-scaling-stroke"  transform=" translate(-250.95, -135.03)" d="M 248.64 159.6 C 243.6009 168.557 240.8002 179.19799999999998 240.8002 190.397 C 240.8002 226.795 270.48019999999997 255.91699999999997 306.3202 255.91699999999997 C 342.16020000000003 255.92090599999997 371.8402 226.23699999999997 371.8402 190.397 C 371.8402 154.557 342.1602 124.877 306.3202 124.877 C 295.1212 124.877 284.4802 128.2364 275.5192 132.7168 L 162.3992 19.5968 C 155.118 12.315600000000002 142.7972 12.315600000000002 135.52020000000002 19.5968 C 128.239 26.878 128.239 39.198800000000006 135.52020000000002 46.47580000000001 z M 334.32 190.397 C 334.32 205.518 322 218.397 306.32 218.397 C 291.199 218.397 278.32 206.077 278.32 190.397 C 278.32 175.27599999999998 290.64 162.397 306.32 162.397 C 321.441 162.397 334.32 174.71699999999998 334.32 190.397 z" stroke-linecap="round" />
</g>
</svg>