<svg enable-background="new 0 0 178 40" viewBox="0 0 178 40" xmlns="http://www.w3.org/2000/svg" xmlns:xlink="http://www.w3.org/1999/xlink"><clipPath id="a"><path d="m0 0h177.8v40h-177.8z"/></clipPath><g clip-path="url(#a)"><path d="m53.7 27.9c-.5.2-1 .3-1.5.4s-1 .2-1.5.2c-1 0-1.9-.2-2.7-.5-.8-.4-1.4-.9-2-1.5-.5-.6-.9-1.4-1.1-2.2-.2-.9-.2-1.8 0-2.7.2-1 .5-1.9 1-2.7s1.1-1.6 1.9-2.2c.7-.6 1.6-1.1 2.5-1.5s1.9-.5 2.9-.5 1.9.2 2.7.5c.8.4 1.4.9 2 1.5.5.6.9 1.4 1.1 2.2s.2 1.8 0 2.7c-.2 1-.5 2-1.1 2.9-.5.9-1.2 1.7-2 2.3l.8 1.5-2.1 1.3zm-2.1-4.3 2.1-1.3 1.1 2.2c.4-.4.8-.8 1-1.4.3-.5.5-1.1.6-1.7.1-.7.1-1.3 0-1.9s-.4-1.1-.7-1.5-.8-.7-1.3-.9-1.1-.3-1.7-.3-1.2.1-1.8.3-1.1.5-1.6.9-.9.9-1.2 1.5-.6 1.2-.7 1.9-.1 1.3 0 1.9.4 1.1.7 1.5.8.7 1.3.9 1.1.3 1.7.3c.3 0 .5 0 .8-.1s.5-.1.8-.2z" fill="#f7991c"/><path d="m66.1 27h-.2c-.4.5-.8.8-1.4 1.1-.5.3-1.1.4-1.7.4-1.2 0-2-.4-2.4-1.1s-.6-1.7-.4-2.9l1-5.6h2.5l-.9 5.3c-.1.7-.1 1.2.2 1.5.2.3.6.5 1.2.5.3 0 .6-.1.9-.2s.5-.3.8-.6c.2-.2.4-.5.6-.9.2-.3.3-.7.3-1.1l.8-4.5h2.5l-1.6 9.2h-2.3z" fill="#f7991c"/><path d="m70.4 28.2 1.6-9.2h2.5l-1.6 9.2zm3.1-10.5c-.2 0-.4 0-.6-.1s-.3-.2-.4-.3-.2-.3-.3-.5-.1-.4 0-.6c0-.2.1-.4.2-.6s.3-.4.4-.5c.2-.1.4-.3.6-.3.2-.1.4-.1.6-.1.4 0 .8.2 1 .5.3.3.3.7.3 1.1-.1.4-.3.8-.7 1.1-.3.2-.7.3-1.1.3z" fill="#f7991c"/><path d="m84.2 25.8c-.5.8-1.2 1.4-2 1.9s-1.7.7-2.8.7c-.7 0-1.3-.1-1.9-.4-.6-.2-1-.6-1.4-1s-.6-1-.7-1.5c-.1-.6-.1-1.2 0-2 .1-.7.4-1.4.7-2s.8-1.1 1.3-1.5 1.1-.8 1.7-1 1.3-.4 2-.4c1.1 0 1.9.2 2.6.7.6.5 1.1 1.1 1.3 1.9l-2.4.9c-.1-.4-.4-.7-.6-1s-.7-.3-1.2-.3c-.3 0-.6.1-1 .2-.3.1-.6.3-.9.5s-.5.5-.7.8-.3.7-.4 1.1-.1.8 0 1.1.2.6.4.8.4.4.7.5.6.2.9.2c.5 0 1-.1 1.4-.3s.7-.6 1-1z" fill="#f7991c"/><path d="m87.6 14.7h2.5l-1.3 7.3h.1l3.6-3.1h3v.2l-4 3.3 2.7 5.6v.1h-2.9l-1.8-4-1.3 1.1-.5 3h-2.5z" fill="#f7991c"/><g fill="#0059a2"><path d="m99.5 28.5c-.6 0-1.1-.1-1.6-.2s-.9-.4-1.3-.7-.7-.7-.9-1.2-.4-1-.5-1.6l2.5-.9c.1.7.3 1.2.6 1.7.4.4.9.7 1.6.7.3 0 .5 0 .8-.1s.5-.2.7-.3.4-.3.5-.5.2-.4.3-.7c0-.2 0-.5 0-.7-.1-.2-.2-.4-.3-.6s-.4-.3-.7-.5-.7-.3-1.1-.5l-.8-.3c-.3-.1-.7-.3-1-.5s-.6-.5-.9-.8c-.2-.3-.4-.7-.6-1.1-.1-.4-.1-.9 0-1.4s.3-1 .6-1.5.7-.9 1.1-1.2.9-.6 1.5-.8 1.2-.3 1.8-.3c.7 0 1.2.1 1.7.3s.8.4 1.1.7.5.6.7.9.3.7.3 1l-2.4.9c-.1-.4-.2-.7-.5-1s-.7-.5-1.3-.5-1 .1-1.4.4-.6.6-.7 1 0 .7.3 1 .8.6 1.5.8l.8.3c.5.2 1 .4 1.4.6s.7.5 1 .9c.3.3.4.7.5 1.2.1.4.1.9 0 1.5-.1.7-.4 1.3-.7 1.8-.4.5-.8.9-1.3 1.2s-1 .6-1.6.7c-.6.2-1.1.3-1.7.3z"/><path d="m108.3 14.7h2.5l-.7 3.8-.4 1.7h.2c.3-.4.8-.8 1.3-1.1s1.1-.4 1.7-.4c1.2 0 2 .4 2.5 1.1.4.7.6 1.7.3 2.9l-1 5.6h-2.5l.9-5.3c.1-.6 0-1.1-.2-1.5-.2-.3-.6-.5-1.2-.5-.3 0-.7.1-.9.2-.3.1-.5.3-.8.6-.2.2-.4.5-.6.9-.2.3-.3.7-.3 1.1l-.8 4.5h-2.3z"/><path d="m122.8 18.7c.7 0 1.3.1 1.9.4.6.2 1 .6 1.4 1s.6.9.7 1.5.1 1.3 0 2-.4 1.4-.7 2-.8 1.1-1.3 1.5-1.1.8-1.7 1-1.3.4-2 .4-1.3-.1-1.9-.4c-.6-.2-1-.6-1.4-1s-.6-.9-.7-1.5-.1-1.3 0-2 .4-1.4.7-2 .8-1.1 1.3-1.5 1.1-.8 1.7-1c.6-.3 1.3-.4 2-.4zm-1.4 7.5c.3 0 .6-.1.9-.2s.6-.3.9-.5.5-.5.7-.8.3-.7.4-1.1.1-.8 0-1.1-.2-.6-.4-.8-.4-.4-.7-.5-.6-.2-.9-.2-.6.1-1 .2c-.3.1-.6.3-.9.5s-.5.5-.7.8-.3.7-.4 1.1-.1.8 0 1.1.2.6.4.8.4.4.7.5c.4.1.7.2 1 .2z"/><path d="m129 19h2.3l-.2 1.1h.2c.3-.4.7-.7 1.2-1s1.1-.4 1.8-.4c.6 0 1.1.1 1.6.4.5.2.9.6 1.2 1s.6.9.7 1.5.1 1.3 0 2-.4 1.4-.7 2-.8 1.1-1.2 1.5c-.5.4-1 .8-1.6 1s-1.2.4-1.7.4c-.7 0-1.3-.1-1.7-.4s-.7-.6-.9-1h-.2l-.1 1.3-.7 3.8h-2.5zm3.5 7.2c.3 0 .6-.1 1-.2.3-.1.6-.3.9-.5s.5-.5.7-.8.3-.7.4-1.1.1-.8 0-1.1-.2-.6-.4-.8-.4-.4-.7-.5-.6-.2-.9-.2-.6.1-1 .2-.6.3-.9.5-.5.5-.7.8-.3.7-.4 1.1-.1.8 0 1.1.2.6.4.8.4.4.7.5.6.2.9.2z"/><path d="m140 19h2.3l-.2 1.1h.2c.3-.4.7-.7 1.2-1s1.1-.4 1.8-.4c.6 0 1.1.1 1.6.4.5.2.9.6 1.2 1s.6.9.7 1.5.1 1.3 0 2-.4 1.4-.7 2-.8 1.1-1.2 1.5c-.5.4-1 .8-1.6 1s-1.2.4-1.7.4c-.7 0-1.3-.1-1.7-.4s-.7-.6-.9-1h-.2l-.1 1.3-.7 3.8h-2.5zm3.5 7.2c.3 0 .6-.1 1-.2.3-.1.6-.3.9-.5s.5-.5.7-.8.3-.7.4-1.1.1-.8 0-1.1-.2-.6-.4-.8-.4-.4-.7-.5-.6-.2-.9-.2-.6.1-1 .2-.6.3-.9.5-.5.5-.7.8-.3.7-.4 1.1-.1.8 0 1.1.2.6.4.8.4.4.7.5.6.2.9.2z"/><path d="m158.7 26c-.6.8-1.2 1.4-2 1.8-.8.5-1.7.7-2.8.7-.7 0-1.3-.1-1.9-.4-.6-.2-1-.6-1.4-1s-.6-1-.8-1.5c-.1-.6-.1-1.2 0-2 .1-.7.3-1.3.7-1.9.3-.6.8-1.1 1.3-1.6.5-.4 1.1-.8 1.7-1.1s1.3-.4 2-.4 1.4.1 1.9.4c.5.2 1 .6 1.3 1s.5.9.6 1.5.1 1.2 0 1.9v.2c0 .1 0 .1-.1.2 0 .1 0 .1-.1.2h-6.9c0 .4 0 .7.1 1s.3.5.5.7.4.3.7.4.5.1.8.1c.6 0 1.1-.1 1.5-.4s.8-.6 1-1zm-1.6-3.6c0-.2 0-.3-.1-.5s-.2-.4-.3-.6c-.2-.2-.3-.3-.6-.4-.2-.1-.6-.2-.9-.2-.5 0-1 .2-1.5.5s-.8.7-1.1 1.3h4.5z"/><path d="m161.7 19h2.3l-.2 1.3h.2c.2-.2.3-.4.6-.6.2-.2.5-.4.7-.5.3-.1.5-.3.8-.3.3-.1.6-.1.8-.1.3 0 .6 0 .8.1s.4.2.5.3l-1 2.2c-.1-.1-.3-.1-.5-.2-.2 0-.4-.1-.7-.1s-.7.1-1 .2-.6.3-.8.6c-.2.2-.4.5-.6.8s-.3.7-.3 1l-.8 4.5h-2.5z"/></g><path d="m31.7 17.3-3.8-6.3h8.1v-4.2h-15.4l8.7 14.6h6.4l-3.3 5.5 2.4 3.9.1.1 8.1-13.6z" fill="#f7991c"/><path d="m28.1 27.7h-2.4l2.4 4.2h4.9l-2.5-4.2z" fill="#0059a2"/><path d="m18.8 27.7-3.8-6.3h11.7l-1.5-2.5-1-1.6h-16.5l8.7 14.6h9.3l-2.5-4.2z" fill="#0059a2"/></g></svg>