<svg width="16" height="16" viewBox="0 0 16 16" fill="none" xmlns="http://www.w3.org/2000/svg">
<path d="M12.8 6.4C11.9176 6.4 11.2 5.6824 11.2 4.8H14.4C14.4 5.6824 13.6824 6.4 12.8 6.4ZM12.8 11.2H3.2V8C4.1544 8 5.0136 7.58 5.6 6.9144C6.1864 7.58 7.0456 8 8 8C8.9544 8 9.8136 7.58 10.4 6.9144C10.9864 7.58 11.8456 8 12.8 8V11.2ZM10.176 14.4H5.824C6.1104 13.8384 6.2536 13.2528 6.3264 12.8H9.6736C9.7456 13.2528 9.8896 13.8384 10.1752 14.4H10.176ZM9.6 4.8C9.6 5.6824 8.8824 6.4 8 6.4C7.1176 6.4 6.4 5.6824 6.4 4.8H9.6ZM1.6 4.8H4.8C4.8 5.6824 4.0824 6.4 3.2 6.4C2.3176 6.4 1.6 5.6824 1.6 4.8ZM2.8944 1.6H13.1056L13.9056 3.2H2.0944L2.8944 1.6V1.6ZM15.916 3.6424L14.316 0.4424C14.18 0.1704 13.904 0 13.6 0H2.4C2.096 0 1.82 0.1712 1.684 0.4424L0.084 3.6424C0.028 3.752 0 3.876 0 4V4.8C0 5.9792 0.648 7 1.6 7.5552V12C1.6 12.4416 1.9576 12.8 2.4 12.8H4.696C4.5712 13.3976 4.2904 14.16 3.6424 14.484C3.3104 14.6504 3.136 15.0224 3.2208 15.384C3.3072 15.744 3.6288 16 4 16H12C12.3712 16 12.6928 15.744 12.7792 15.384C12.864 15.0224 12.6896 14.6504 12.3576 14.484C11.7176 14.164 11.4352 13.3992 11.3072 12.8H13.6C14.0424 12.8 14.4 12.4416 14.4 12V7.5552C15.352 7 16 5.9792 16 4.8V4C16 3.876 15.9712 3.752 15.916 3.6424V3.6424Z" fill="#F18781"/>
</svg>
