<svg width="23" height="25" viewBox="0 0 23 25" fill="none" xmlns="http://www.w3.org/2000/svg">
<path d="M20.4285 10.7143H18.6428V7.14286C18.6428 3.21429 15.4285 0 11.4999 0C7.57136 0 4.35707 3.21429 4.35707 7.14286V10.7143H2.57136C1.6785 10.7143 0.785645 11.6071 0.785645 12.5V23.2143C0.785645 24.1071 1.6785 25 2.57136 25H20.4285C21.3214 25 22.2142 24.1071 22.2142 23.2143V12.5C22.2142 11.6071 21.3214 10.7143 20.4285 10.7143ZM7.9285 7.14286C7.9285 5.17857 9.53564 3.57143 11.4999 3.57143C13.4642 3.57143 15.0714 5.17857 15.0714 7.14286V10.7143H7.9285V7.14286Z" fill="black"/>
</svg>
